<?xml version="1.0" encoding="UTF-8" standalone="no"?>
<!-- Created with Inkscape (http://www.inkscape.org/) -->

<svg
   xmlns:dc="http://purl.org/dc/elements/1.1/"
   xmlns:cc="http://creativecommons.org/ns#"
   xmlns:rdf="http://www.w3.org/1999/02/22-rdf-syntax-ns#"
   xmlns:svg="http://www.w3.org/2000/svg"
   xmlns="http://www.w3.org/2000/svg"
   xmlns:sodipodi="http://sodipodi.sourceforge.net/DTD/sodipodi-0.dtd"
   xmlns:inkscape="http://www.inkscape.org/namespaces/inkscape"
   version="1.1"
   id="svg2"
   width="140"
   height="140"
   viewBox="0 0 140 140"
   sodipodi:docname="lemon.svg"
   inkscape:version="0.92.4 (5da689c313, 2019-01-14)">
  <metadata
     id="metadata8">
    <rdf:RDF>
      <cc:Work
         rdf:about="">
        <dc:format>image/svg+xml</dc:format>
        <dc:type
           rdf:resource="http://purl.org/dc/dcmitype/StillImage" />
        <dc:title></dc:title>
      </cc:Work>
    </rdf:RDF>
  </metadata>
  <defs
     id="defs6" />
  <sodipodi:namedview
     pagecolor="#ffffff"
     bordercolor="#666666"
     borderopacity="1"
     objecttolerance="10"
     gridtolerance="10"
     guidetolerance="10"
     inkscape:pageopacity="0"
     inkscape:pageshadow="2"
     inkscape:window-width="1920"
     inkscape:window-height="1001"
     id="namedview4"
     showgrid="false"
     inkscape:zoom="20.462174"
     inkscape:cx="32.681415"
     inkscape:cy="81.66458"
     inkscape:window-x="-9"
     inkscape:window-y="41"
     inkscape:window-maximized="1"
     inkscape:current-layer="svg2"
     inkscape:pagecheckerboard="true" />
  <g
     id="g1111"
     transform="matrix(1.0161088,0,0,1.0161088,-0.52968625,-0.75618571)">
    <path
       style="fill:#fcd60a;stroke-width:1.33333337"
       d="M 37.333333,135.94035 C 21.223689,130.05878 7.6370975,115.41681 3.2499776,99.209483 0.93392305,90.653285 0.92830868,89.848012 3.1262051,81.456699 5.963752,70.623275 10.827506,63.022071 16.421712,60.678128 18.756437,59.699891 22.166667,57.265803 24,55.269045 c 1.833333,-1.996757 5.665096,-5.343164 8.515028,-7.436458 4.196848,-3.082615 6.097475,-3.66487 10,-3.063488 2.851553,0.439425 7.19278,-0.107787 10.635483,-1.34059 4.051433,-1.45079 7.997448,-1.826844 13,-1.238892 l 7.182822,0.8442 v -4.803846 c 0,-3.504282 -1.155665,-6.120079 -4.271921,-9.669296 -4.16066,-4.738732 -4.204068,-4.915858 -1.666667,-6.80087 1.603896,-1.191517 4.790608,-1.769274 8.290928,-1.503158 4.647167,0.353305 5.532803,0.06492 4.848728,-1.57886 -2.159493,-5.189112 -2.162821,-7.164456 -0.01472,-8.7351881 1.830151,-1.338239 3.544375,-1.2505638 8.874315,0.4538831 C 93.0273,11.558365 96,12.994473 96,13.587832 c 0,0.593359 0.496084,1.078835 1.102409,1.078835 0.606326,0 0.848339,-1.731096 0.537808,-3.84688 -0.581049,-3.9589387 1.538563,-9.4864537 3.637723,-9.4864537 2.58393,0 9.37696,7.0772831 11.57507,12.0594117 1.67447,3.795274 3.13369,5.273922 5.20462,5.273922 6.84961,0 19.2757,6.439274 19.2757,9.988782 0,0.993958 -3.15,3.331191 -7,5.193848 -3.85,1.862659 -6.1,3.415991 -5,3.45185 2.07891,0.06777 6.9779,6.711334 8.51108,11.541962 1.28416,4.046039 -2.14074,6.340752 -8.03588,5.384103 -3.9304,-0.637815 -4.45526,-0.482937 -2.80391,0.827375 2.99881,2.379497 4.07639,10.535745 1.80276,13.645122 -1.84726,2.52628 -1.98084,2.519483 -7.82274,-0.398104 -6.01214,-3.002608 -11.05111,-3.62783 -16.81168,-2.085953 -2.945349,0.788356 -3.106144,1.308719 -2.3634,7.648461 0.492197,4.201187 0.06117,9.587948 -1.127141,14.086338 -1.058259,4.006081 -1.595902,8.591458 -1.194762,10.189728 0.997,3.972361 -2.067304,9.390431 -9.346905,16.526491 -3.366381,3.3 -6.125207,6.66908 -6.130723,7.48685 -0.02251,3.33617 -6.259644,9.06596 -13.246928,12.16936 -10.059784,4.46805 -20.109182,5.02037 -29.429768,1.61747 z"
       id="path1121"
       inkscape:connector-curvature="0" />
    <path
       style="fill:#73dd87;stroke-width:1.33333337"
       d="M 37.333333,135.94035 C 21.223689,130.05878 7.6370975,115.41681 3.2499776,99.209483 0.93392305,90.653285 0.92830868,89.848012 3.1262051,81.456699 5.963752,70.623275 10.827506,63.022071 16.421712,60.678128 18.756437,59.699891 22.166667,57.265803 24,55.269045 c 1.833333,-1.996757 5.665096,-5.343164 8.515028,-7.436458 4.196848,-3.082615 6.097475,-3.66487 10,-3.063488 2.851553,0.439425 7.19278,-0.107787 10.635483,-1.34059 4.051433,-1.45079 7.997448,-1.826844 13,-1.238892 l 7.182822,0.8442 v -4.803846 c 0,-3.504282 -1.155665,-6.120079 -4.271921,-9.669296 -4.16066,-4.738732 -4.204068,-4.915858 -1.666667,-6.80087 1.603896,-1.191517 4.790608,-1.769274 8.290928,-1.503158 4.647167,0.353305 5.532803,0.06492 4.848728,-1.57886 -2.159493,-5.189112 -2.162821,-7.164456 -0.01472,-8.7351881 1.830151,-1.338239 3.544375,-1.2505638 8.874315,0.4538831 C 93.0273,11.558365 96,12.994473 96,13.587832 c 0,0.593359 0.496084,1.078835 1.102409,1.078835 0.606326,0 0.848339,-1.731096 0.537808,-3.84688 -0.581049,-3.9589387 1.538563,-9.4864537 3.637723,-9.4864537 2.58393,0 9.37696,7.0772831 11.57507,12.0594117 1.67447,3.795274 3.13369,5.273922 5.20462,5.273922 6.84961,0 19.2757,6.439274 19.2757,9.988782 0,0.993958 -3.15,3.331191 -7,5.193848 -3.85,1.862659 -6.1,3.415991 -5,3.45185 2.07891,0.06777 6.9779,6.711334 8.51108,11.541962 1.28416,4.046039 -2.14074,6.340752 -8.03588,5.384103 -3.9304,-0.637815 -4.45526,-0.482937 -2.80391,0.827375 2.99881,2.379497 4.07639,10.535745 1.80276,13.645122 -1.84726,2.52628 -1.98084,2.519483 -7.82274,-0.398104 -6.01214,-3.002608 -11.05111,-3.62783 -16.81168,-2.085953 -2.945349,0.788356 -3.106144,1.308719 -2.3634,7.648461 0.492197,4.201187 0.06117,9.587948 -1.127141,14.086338 -1.058259,4.006081 -1.595902,8.591458 -1.194762,10.189728 0.997,3.972361 -2.067304,9.390431 -9.346905,16.526491 -3.366381,3.3 -6.125207,6.66908 -6.130723,7.48685 -0.02251,3.33617 -6.259644,9.06596 -13.246928,12.16936 -10.059784,4.46805 -20.109182,5.02037 -29.429768,1.61747 z m 26.546384,-3.23124 c 3.051576,-1.07666 6.814686,-2.84456 8.362464,-3.92867 2.768047,-1.93881 2.734511,-2.00908 -2.047352,-4.28939 -6.134018,-2.92511 -6.294336,-5.05663 -0.295682,-3.93127 4.017446,0.75367 5.392881,0.17098 11.452148,-4.85162 5.99394,-4.96844 15.124338,-16.474253 11.098826,-13.98635 -1.610374,0.99527 -9.640656,-1.30386 -11.783454,-3.373685 -0.862614,-0.833237 0.637617,-1.112417 4.249457,-0.79079 3.070536,0.273425 5.341647,0.25599 5.046912,-0.03875 -0.294733,-0.294733 0.08496,-1.695928 0.843763,-3.113765 0.758804,-1.417838 1.58604,-3.588948 1.838301,-4.82469 0.252263,-1.235742 0.874507,-3.296804 1.382764,-4.580137 0.76576,-1.933517 0.157147,-2.349391 -3.551879,-2.427047 -2.461792,-0.05154 -5.675985,-0.567984 -7.142652,-1.147652 -2.168037,-0.85687 -1.616229,-1.233688 2.95107,-2.015217 3.089754,-0.5287 6.195457,-0.604221 6.901562,-0.167825 0.762403,0.471192 1.130047,-1.365562 0.905194,-4.52237 -0.727027,-10.207088 -20.26993,-29.223896 -30.156758,-29.344938 -3.10438,-0.03801 -3.351785,0.362242 -2.854877,4.618613 0.645227,5.526836 -0.616085,9.669879 -2.400623,7.885341 -0.678522,-0.678519 -1.408853,-3.77797 -1.622956,-6.887666 C 56.841843,47.881537 56.366667,45.333393 56,45.328692 c -0.366667,-0.0047 -3.516667,1.012947 -7,2.261439 -6.122548,2.194438 -6.333333,2.4476 -6.333333,7.606594 0,6.116543 -1.564278,5.244904 -3.942334,-2.196725 -0.878793,-2.75 -2.067346,-5 -2.64123,-5 -1.469606,0 -10.827915,8.963439 -14.425862,13.817165 -2.295252,3.096358 -2.813765,5.102748 -2.184945,8.45465 0.530731,2.829036 0.296567,4.394852 -0.657241,4.394852 -0.814947,0 -1.490755,-0.15 -1.501796,-0.333334 C 17.302217,74.15 16.449813,71.6 15.419027,68.666667 L 13.544871,63.333333 9.2724355,72.420931 C 1.368546,89.232737 4.3334711,105.25144 18.066555,119.93321 c 8.983016,9.60357 19.885241,14.73346 31.312106,14.73346 4.924004,0 11.449479,-0.88091 14.501056,-1.95756 z M 48.911111,129.8 C 48.41,129.29889 48,126.95566 48,124.59283 48,120.7387 47.519953,120.20672 43.333333,119.4213 36.384412,118.11768 37.613632,115.78632 45,116.26028 l 6.333333,0.40639 0.418848,5.84782 c 0.404819,5.65192 -0.964145,9.16244 -2.84107,7.28551 z m -21.4043,-11.01562 c -0.775638,-4.85057 -1.207514,-5.27872 -6.170411,-6.11719 -6.12968,-1.03561 -6.934333,-2.882 -1.815824,-4.16666 7.930847,-1.99052 13.969409,4.04805 11.978893,11.97889 -1.273885,5.07557 -3.029154,4.33039 -3.992658,-1.69504 z M 71.747319,107.26421 C 71.353444,101.13594 71.10664,100.7656 66.666667,99.64048 59.227731,97.7554 58.731764,96 65.638095,96 c 8.326566,0 10.921413,2.630712 9.760778,9.89569 -1.29353,8.09685 -3.17382,8.80154 -3.651554,1.36852 z m -21.341826,-2.65096 c -0.420504,-0.70395 -1.18414,-3.81593 -1.69697,-6.91551 -0.922235,-5.574048 -1.004,-5.645089 -7.487136,-6.505108 C 32.472388,90.032037 32.864047,88 41.83674,88 c 7.569432,0 9.257327,1.071088 10.603356,6.728575 0.885691,3.722642 -0.806015,11.941435 -2.034603,9.884675 z M 20.578696,96.666667 C 20.097187,94.1 19.019999,91.908612 18.184945,91.796915 17.349892,91.685217 16.066667,91.454427 15.333333,91.284047 14.6,91.113668 12.83,90.905056 11.4,90.820467 7.7948713,90.607209 10.335893,88.49076 15.501717,87.404092 21.071083,86.232537 24,89.227925 24,96.095239 c 0,6.497121 -2.239467,6.871161 -3.421304,0.571428 z M 72,79.420133 c 0,-7.118054 -2.171877,-9.849208 -8.598731,-10.812973 -3.337365,-0.500469 -6.067936,-1.441817 -6.067936,-2.091885 0,-1.786251 13.898324,-1.416951 15.733334,0.418058 1.926549,1.92655 2.160562,15.733334 0.266666,15.733334 C 72.6,82.666667 72,81.205727 72,79.420133 Z m -30.213337,-2.0868 c -0.805674,-1.833333 -1.692474,-4.533333 -1.97067,-6 -0.401174,-2.115017 -1.88254,-2.818205 -7.160901,-3.3992 -6.562921,-0.722388 -6.603108,-0.754704 -2.901625,-2.333333 9.781272,-4.171573 14.764533,-0.794909 13.946468,9.450141 -0.42585,5.333142 -0.522127,5.447991 -1.913272,2.282392 z"
       id="path1119"
       inkscape:connector-curvature="0" />
    <path
       style="fill:#f07e00;stroke-width:1.33333337"
       d="M 37.333333,135.94035 C 21.223689,130.05878 7.6370975,115.41681 3.2499776,99.209483 0.93392305,90.653285 0.92830868,89.848012 3.1262051,81.456699 5.963752,70.623275 10.827506,63.022071 16.421712,60.678128 18.756437,59.699891 22.166667,57.265803 24,55.269045 c 1.833333,-1.996757 5.665096,-5.343164 8.515028,-7.436458 4.196848,-3.082615 6.097475,-3.66487 10,-3.063488 2.851553,0.439425 7.19278,-0.107787 10.635483,-1.34059 4.051433,-1.45079 7.997448,-1.826844 13,-1.238892 l 7.182822,0.8442 v -4.803846 c 0,-3.504282 -1.155665,-6.120079 -4.271921,-9.669296 -4.10484,-4.675156 -4.173096,-4.937712 -1.74516,-6.713063 3.092412,-2.261227 10.247697,-2.416996 12.394859,-0.269835 2.571858,2.571859 3.406853,0.18399 1.091554,-3.121562 -2.737501,-3.908331 -2.720782,-7.32978 0.04338,-8.8766822 C 83.645671,8.0127828 96,11.824069 96,14.254499 96,15.214524 96.652739,16 97.450531,16 c 0.937208,0 1.152081,-1.769431 0.607184,-5 -1.126558,-6.6790905 1.546572,-10.68584764 5.660305,-8.4842431 3.39242,1.8155652 8.94473,8.9622321 10.21707,13.1509101 0.59815,1.969161 1.95741,3 3.9558,3 7.06827,0 19.44244,6.39871 19.44244,10.053728 0,1.029678 -3.09969,3.205593 -6.88819,4.835365 -3.86818,1.664044 -6.06035,3.236577 -5,3.586703 2.32547,0.767868 4.47791,3.50944 7.27648,9.268069 2.96461,6.100288 0.74479,8.803939 -6.43748,7.840595 -4.73163,-0.634644 -4.9975,-0.507804 -3.20371,1.528397 3.06776,3.482339 3.9412,9.892016 1.75534,12.881359 -1.88595,2.579193 -1.97563,2.575089 -7.85113,-0.359278 -6.01214,-3.002608 -11.05111,-3.62783 -16.81168,-2.085953 -2.945349,0.788356 -3.106144,1.308719 -2.3634,7.648461 0.492197,4.201187 0.06117,9.587948 -1.127141,14.086338 -1.058259,4.006081 -1.595902,8.591458 -1.194762,10.189728 0.997,3.972361 -2.067304,9.390431 -9.346905,16.526491 -3.366381,3.3 -6.125207,6.66908 -6.130723,7.48685 -0.02251,3.33617 -6.259644,9.06596 -13.246928,12.16936 -10.059784,4.46805 -20.109182,5.02037 -29.429768,1.61747 z m 26.546384,-3.23124 c 3.051576,-1.07666 6.814686,-2.84456 8.362464,-3.92867 2.768047,-1.93881 2.734511,-2.00908 -2.047352,-4.28939 -6.134018,-2.92511 -6.294336,-5.05663 -0.295682,-3.93127 4.017446,0.75367 5.392881,0.17098 11.452148,-4.85162 5.99394,-4.96844 15.124338,-16.474253 11.098826,-13.98635 -1.610374,0.99527 -9.640656,-1.30386 -11.783454,-3.373685 -0.862614,-0.833237 0.637617,-1.112417 4.249457,-0.79079 3.070536,0.273425 5.341647,0.25599 5.046912,-0.03875 -0.294733,-0.294733 0.08496,-1.695928 0.843763,-3.113765 0.758804,-1.417838 1.58604,-3.588948 1.838301,-4.82469 0.252263,-1.235742 0.874507,-3.296804 1.382764,-4.580137 0.76576,-1.933517 0.157147,-2.349391 -3.551879,-2.427047 -2.461792,-0.05154 -5.675985,-0.567984 -7.142652,-1.147652 -2.168037,-0.85687 -1.616229,-1.233688 2.95107,-2.015217 3.089754,-0.5287 6.195457,-0.604221 6.901562,-0.167825 0.762403,0.471192 1.130047,-1.365562 0.905194,-4.52237 -0.727027,-10.207088 -20.26993,-29.223896 -30.156758,-29.344938 -3.10438,-0.03801 -3.351785,0.362242 -2.854877,4.618613 0.645227,5.526836 -0.616085,9.669879 -2.400623,7.885341 -0.678522,-0.678519 -1.408853,-3.77797 -1.622956,-6.887666 C 56.841843,47.881537 56.366667,45.333393 56,45.328692 c -0.366667,-0.0047 -3.516667,1.012947 -7,2.261439 -6.122548,2.194438 -6.333333,2.4476 -6.333333,7.606594 0,6.116543 -1.564278,5.244904 -3.942334,-2.196725 -0.878793,-2.75 -2.067346,-5 -2.64123,-5 -1.469606,0 -10.827915,8.963439 -14.425862,13.817165 -2.295252,3.096358 -2.813765,5.102748 -2.184945,8.45465 0.530731,2.829036 0.296567,4.394852 -0.657241,4.394852 -0.814947,0 -1.490755,-0.15 -1.501796,-0.333334 C 17.302217,74.15 16.449813,71.6 15.419027,68.666667 L 13.544871,63.333333 9.2724355,72.420931 C 1.368546,89.232737 4.3334711,105.25144 18.066555,119.93321 c 8.983016,9.60357 19.885241,14.73346 31.312106,14.73346 4.924004,0 11.449479,-0.88091 14.501056,-1.95756 z M 48.911111,129.8 C 48.41,129.29889 48,126.95566 48,124.59283 48,120.7387 47.519953,120.20672 43.333333,119.4213 36.384412,118.11768 37.613632,115.78632 45,116.26028 l 6.333333,0.40639 0.418848,5.84782 c 0.404819,5.65192 -0.964145,9.16244 -2.84107,7.28551 z m -21.4043,-11.01562 c -0.775638,-4.85057 -1.207514,-5.27872 -6.170411,-6.11719 -6.12968,-1.03561 -6.934333,-2.882 -1.815824,-4.16666 7.930847,-1.99052 13.969409,4.04805 11.978893,11.97889 -1.273885,5.07557 -3.029154,4.33039 -3.992658,-1.69504 z M 71.747319,107.26421 C 71.353444,101.13594 71.10664,100.7656 66.666667,99.64048 59.227731,97.7554 58.731764,96 65.638095,96 c 8.326566,0 10.921413,2.630712 9.760778,9.89569 -1.29353,8.09685 -3.17382,8.80154 -3.651554,1.36852 z m -21.341826,-2.65096 c -0.420504,-0.70395 -1.18414,-3.81593 -1.69697,-6.91551 -0.922235,-5.574048 -1.004,-5.645089 -7.487136,-6.505108 C 32.472388,90.032037 32.864047,88 41.83674,88 c 7.569432,0 9.257327,1.071088 10.603356,6.728575 0.885691,3.722642 -0.806015,11.941435 -2.034603,9.884675 z M 20.578696,96.666667 C 20.097187,94.1 19.019999,91.908612 18.184945,91.796915 17.349892,91.685217 16.066667,91.454427 15.333333,91.284047 14.6,91.113668 12.83,90.905056 11.4,90.820467 7.7948713,90.607209 10.335893,88.49076 15.501717,87.404092 21.071083,86.232537 24,89.227925 24,96.095239 c 0,6.497121 -2.239467,6.871161 -3.421304,0.571428 z M 72,79.420133 c 0,-7.118054 -2.171877,-9.849208 -8.598731,-10.812973 -3.337365,-0.500469 -6.067936,-1.441817 -6.067936,-2.091885 0,-1.786251 13.898324,-1.416951 15.733334,0.418058 1.926549,1.92655 2.160562,15.733334 0.266666,15.733334 C 72.6,82.666667 72,81.205727 72,79.420133 Z m -30.213337,-2.0868 c -0.805674,-1.833333 -1.692474,-4.533333 -1.97067,-6 -0.401174,-2.115017 -1.88254,-2.818205 -7.160901,-3.3992 -6.562921,-0.722388 -6.603108,-0.754704 -2.901625,-2.333333 9.781272,-4.171573 14.764533,-0.794909 13.946468,9.450141 -0.42585,5.333142 -0.522127,5.447991 -1.913272,2.282392 z M 122.66667,63.866667 c 0,-5.888639 -7.40332,-13.199154 -12.39951,-12.244072 -4.15087,0.793489 -4.87558,3.044072 -0.98022,3.044072 3.52329,0 12.04639,7.644636 12.04639,10.804789 0,1.390699 0.3,2.528544 0.66667,2.528544 0.36667,0 0.66667,-1.86 0.66667,-4.133333 z M 100,53.843187 c 0,-3.082759 -4.433823,-7.17652 -7.77266,-7.17652 -1.233611,0 -1.528637,0.774037 -0.889357,2.333333 0.52614,1.283333 1.271553,4.91162 1.656473,8.062859 l 0.699853,5.729525 3.152846,-2.961944 C 98.58122,58.201371 100,55.507107 100,53.843187 Z m 29.37289,-8.435936 c -3.16125,-5.906856 -13.97753,-9.33594 -17.70155,-5.61192 -1.16179,1.161781 -0.80747,1.538002 1.44844,1.538002 3.64809,0 12.37917,4.319747 14.92068,7.382087 2.33909,2.818428 3.3148,0.395921 1.33243,-3.308169 z M 97.751175,41.666667 c -2.156686,-6.04985 -8.013719,-7.652343 -12.646187,-3.460016 -3.790733,3.430565 -2.982776,4.282568 4.561679,4.81036 3.85,0.269337 7.431169,0.600692 7.958153,0.736346 0.526985,0.135654 0.583844,-0.803357 0.12636,-2.08669 z m 12.184945,-3.543232 c 1.11533,-1.824023 0.64248,-2.9412 -2.34381,-5.537558 -4.69547,-4.082377 -6.81729,-4.17531 -5.76602,-0.252544 0.44218,1.65 0.81216,4.630666 0.82217,6.623702 0.0159,3.172058 0.38415,3.488329 2.95433,2.537557 1.61487,-0.597379 3.56487,-2.114399 4.33333,-3.371157 z M 85.209741,29.1024 C 83.547824,25.997079 80.483119,24.432809 73.975453,23.36826 l -5.308786,-0.868433 5.562724,2.63836 c 3.059497,1.451098 6.601961,4.224438 7.872141,6.162978 1.660137,2.53369 2.600353,3.053874 3.344243,1.850235 0.569153,-0.920909 0.462938,-2.74296 -0.236034,-4.049 z M 98.017524,22.721877 C 96.822452,18.956541 88.361809,12 84.977425,12 c -2.499972,0 -2.218622,0.483247 1.917803,3.294021 2.666173,1.811711 5.955455,5.644498 7.309513,8.517304 1.814686,3.850083 2.746202,4.729679 3.543236,3.34574 0.594722,-1.032649 0.716016,-3.028482 0.269547,-4.435188 z m 20.670606,4.36799 c 3.3118,-0.396423 8.26845,-0.100347 11.01478,0.657956 5.78138,1.596316 5.43185,-0.08112 -0.67493,-3.23906 -2.76288,-1.428742 -6.23101,-1.937663 -10.44511,-1.53274 l -6.30885,0.606201 -0.80294,-5.021263 c -0.71162,-4.450265 -6.9924,-14.1507559 -8.30944,-12.8337145 -0.27859,0.2785966 0.43926,2.4024375 1.59524,4.7196465 1.15597,2.317209 2.44569,7.545371 2.86604,11.618138 0.62823,6.087013 1.14512,7.257349 2.90401,6.575317 1.17685,-0.456343 4.84939,-1.154059 8.1612,-1.550481 z"
       id="path1117"
       inkscape:connector-curvature="0" />
    <path
       style="fill:#21ad4a;stroke-width:1.33333337"
       d="M 37.333333,135.94035 C 21.223689,130.05878 7.6370975,115.41681 3.2499776,99.209483 0.93392305,90.653285 0.92830868,89.848012 3.1262051,81.456699 5.963752,70.623275 10.827506,63.022071 16.421712,60.678128 18.756437,59.699891 22.166667,57.265803 24,55.269045 c 1.833333,-1.996757 5.665096,-5.343164 8.515028,-7.436458 4.196848,-3.082615 6.097475,-3.66487 10,-3.063488 2.851553,0.439425 7.19278,-0.107787 10.635483,-1.34059 4.051433,-1.45079 7.997448,-1.826844 13,-1.238892 l 7.182822,0.8442 v -4.803846 c 0,-3.504282 -1.155665,-6.120079 -4.271921,-9.669296 -4.10484,-4.675156 -4.173096,-4.937712 -1.74516,-6.713063 3.092412,-2.261227 10.247697,-2.416996 12.394859,-0.269835 2.571858,2.571859 3.406853,0.18399 1.091554,-3.121562 -2.737501,-3.908331 -2.720782,-7.32978 0.04338,-8.8766822 C 83.645671,8.0127828 96,11.824069 96,14.254499 96,15.214524 96.652739,16 97.450531,16 c 0.937208,0 1.152081,-1.769431 0.607184,-5 -1.126558,-6.6790905 1.546572,-10.68584764 5.660305,-8.4842431 3.39242,1.8155652 8.94473,8.9622321 10.21707,13.1509101 0.59815,1.969161 1.95741,3 3.9558,3 7.06827,0 19.44244,6.39871 19.44244,10.053728 0,1.029678 -3.09969,3.205593 -6.88819,4.835365 -3.86818,1.664044 -6.06035,3.236577 -5,3.586703 2.32547,0.767868 4.47791,3.50944 7.27648,9.268069 2.96461,6.100288 0.74479,8.803939 -6.43748,7.840595 -4.73163,-0.634644 -4.9975,-0.507804 -3.20371,1.528397 3.06776,3.482339 3.9412,9.892016 1.75534,12.881359 -1.88595,2.579193 -1.97563,2.575089 -7.85113,-0.359278 -6.01214,-3.002608 -11.05111,-3.62783 -16.81168,-2.085953 -2.945349,0.788356 -3.106144,1.308719 -2.3634,7.648461 0.492197,4.201187 0.06117,9.587948 -1.127141,14.086338 -1.058259,4.006081 -1.595902,8.591458 -1.194762,10.189728 0.997,3.972361 -2.067304,9.390431 -9.346905,16.526491 -3.366381,3.3 -6.125207,6.66908 -6.130723,7.48685 -0.02251,3.33617 -6.259644,9.06596 -13.246928,12.16936 -10.059784,4.46805 -20.109182,5.02037 -29.429768,1.61747 z m 26.911535,-3.33623 c 7.536973,-2.5681 12.449331,-6.82776 10.534597,-9.13487 -0.993402,-1.19698 0.41383,-2.95529 5.262,-6.57479 3.639931,-2.71746 8.218846,-7.35979 10.175366,-10.31629 3.269329,-4.94029 3.383614,-5.54915 1.411724,-7.521045 -1.971891,-1.971889 -1.966616,-2.479312 0.06516,-6.268021 1.444505,-2.693607 2.227302,-7.398369 2.258516,-13.574099 0.0458,-9.061516 -0.17113,-9.721962 -5.255246,-16 C 82.526468,55.595443 81.342581,54.514929 73.405625,49.25884 66.177937,44.472447 57.995948,44.059965 48.04936,47.980544 44.355545,49.436509 41.333333,50.036509 41.333333,49.313877 41.333333,48.591245 39.888399,48 38.122368,48 c -3.339716,0 -13.068276,8.450152 -17.479543,15.182595 -1.658961,2.531894 -2.794192,3.199372 -3.774362,2.219201 -2.535459,-2.535459 -3.628723,-1.501188 -7.7718487,7.352468 -7.7106228,16.477221 -4.6397302,32.629106 8.9699407,47.178946 8.959664,9.57861 19.890496,14.73346 31.242224,14.73346 4.885568,0 11.606808,-0.92815 14.936089,-2.06255 z M 122.66667,63.866667 c 0,-5.888639 -7.40332,-13.199154 -12.39951,-12.244072 -4.15087,0.793489 -4.87558,3.044072 -0.98022,3.044072 3.52329,0 12.04639,7.644636 12.04639,10.804789 0,1.390699 0.3,2.528544 0.66667,2.528544 0.36667,0 0.66667,-1.86 0.66667,-4.133333 z M 100,53.843187 c 0,-3.082759 -4.433823,-7.17652 -7.77266,-7.17652 -1.233611,0 -1.528637,0.774037 -0.889357,2.333333 0.52614,1.283333 1.271553,4.91162 1.656473,8.062859 l 0.699853,5.729525 3.152846,-2.961944 C 98.58122,58.201371 100,55.507107 100,53.843187 Z m 29.37289,-8.435936 c -3.16125,-5.906856 -13.97753,-9.33594 -17.70155,-5.61192 -1.16179,1.161781 -0.80747,1.538002 1.44844,1.538002 3.64809,0 12.37917,4.319747 14.92068,7.382087 2.33909,2.818428 3.3148,0.395921 1.33243,-3.308169 z M 97.751175,41.666667 c -2.156686,-6.04985 -8.013719,-7.652343 -12.646187,-3.460016 -3.790733,3.430565 -2.982776,4.282568 4.561679,4.81036 3.85,0.269337 7.431169,0.600692 7.958153,0.736346 0.526985,0.135654 0.583844,-0.803357 0.12636,-2.08669 z m 12.184945,-3.543232 c 1.11533,-1.824023 0.64248,-2.9412 -2.34381,-5.537558 -4.69547,-4.082377 -6.81729,-4.17531 -5.76602,-0.252544 0.44218,1.65 0.81216,4.630666 0.82217,6.623702 0.0159,3.172058 0.38415,3.488329 2.95433,2.537557 1.61487,-0.597379 3.56487,-2.114399 4.33333,-3.371157 z M 85.209741,29.1024 C 83.547824,25.997079 80.483119,24.432809 73.975453,23.36826 l -5.308786,-0.868433 5.562724,2.63836 c 3.059497,1.451098 6.601961,4.224438 7.872141,6.162978 1.660137,2.53369 2.600353,3.053874 3.344243,1.850235 0.569153,-0.920909 0.462938,-2.74296 -0.236034,-4.049 z M 98.017524,22.721877 C 96.822452,18.956541 88.361809,12 84.977425,12 c -2.499972,0 -2.218622,0.483247 1.917803,3.294021 2.666173,1.811711 5.955455,5.644498 7.309513,8.517304 1.814686,3.850083 2.746202,4.729679 3.543236,3.34574 0.594722,-1.032649 0.716016,-3.028482 0.269547,-4.435188 z m 20.670606,4.36799 c 3.3118,-0.396423 8.26845,-0.100347 11.01478,0.657956 5.78138,1.596316 5.43185,-0.08112 -0.67493,-3.23906 -2.76288,-1.428742 -6.23101,-1.937663 -10.44511,-1.53274 l -6.30885,0.606201 -0.80294,-5.021263 c -0.71162,-4.450265 -6.9924,-14.1507559 -8.30944,-12.8337145 -0.27859,0.2785966 0.43926,2.4024375 1.59524,4.7196465 1.15597,2.317209 2.44569,7.545371 2.86604,11.618138 0.62823,6.087013 1.14512,7.257349 2.90401,6.575317 1.17685,-0.456343 4.84939,-1.154059 8.1612,-1.550481 z"
       id="path1115"
       inkscape:connector-curvature="0" />
    <path
       style="fill:#0e100a;stroke-width:1.33333337"
       d="m 101.77148,0.66992188 c -2.418596,0.249803 -3.401355,2.94519462 -3.859371,4.99218752 -0.665811,2.6149201 -0.434287,5.3266956 -0.546875,7.9863286 -0.412336,0.832879 -1.1096,-0.467624 -1.359375,-0.861329 C 93.793322,10.565845 90.52332,9.8765258 87.56562,9.2178721 84.751887,8.751063 81.280102,8.2532759 79.111328,10.591797 c -1.623622,1.867074 -0.424913,4.48079 0.01069,6.56516 0.222343,0.860522 0.596711,1.66803 0.95806,2.475855 -3.027918,-1.029613 -6.383788,-1.084306 -9.362059,0.150256 -1.862036,0.788012 -3.836042,1.747853 -5.083253,3.386854 -0.552551,1.569436 1.130488,2.813522 1.923828,3.96289 2.840429,3.09679 5.773009,6.664645 5.576172,11.101563 0,1.52474 0,3.049479 0,4.574219 -6.124685,-0.679136 -12.483094,-1.983824 -18.525391,-0.06445 -4.290103,1.56993 -8.917382,2.483349 -13.460937,1.658203 -4.159563,-0.533561 -7.591088,2.358967 -10.650355,4.735092 -2.967013,2.271589 -5.572208,4.949265 -8.257849,7.530533 -2.212908,1.97236 -4.838532,3.352605 -7.478515,4.638672 C 9.5302728,64.678215 6.6401975,70.558138 4.5359697,76.2126 3.1366128,80.40242 1.8490051,84.688791 1.3402526,89.088281 c -0.2393767,4.278301 1.282572,8.397146 2.4066255,12.459149 4.9092132,14.72675 16.3913909,27.04062 30.5187469,33.37249 8.117039,3.78122 17.568286,4.4167 26.151229,1.90969 6.966957,-1.99132 13.841785,-5.50033 18.38588,-11.2925 0.838207,-1.07651 1.352548,-2.37342 1.511719,-3.71484 3.278062,-5.22916 8.533872,-8.81323 12.054676,-13.87644 2.147936,-2.93838 4.243709,-6.60996 3.230658,-10.375158 -0.322957,-5.923834 2.343097,-11.474406 2.51749,-17.360666 0.408604,-3.740859 -0.411481,-7.447441 -0.468235,-11.174201 -0.192072,-1.553989 1.262856,-2.441712 2.579478,-2.627599 5.32279,-1.580333 11.18248,-0.715769 16.10152,1.80053 2.12632,0.851345 4.1049,2.47326 6.46684,2.521736 1.47679,-0.41482 2.2642,-2.005392 2.92968,-3.269531 1.60408,-4.326912 0.54731,-9.60169 -2.76767,-12.860126 -0.8381,-0.850179 1.00626,-0.390869 1.44751,-0.387158 2.93067,0.325525 6.45864,1.126871 8.94712,-0.948029 1.90715,-1.977643 0.83106,-5.001446 -0.19532,-7.138672 -1.76789,-3.384207 -3.60656,-7.24551 -7.20508,-9.005859 -1.17343,-0.312279 0.97744,-0.857142 1.32422,-1.199219 2.19705,-1.245216 4.41118,-2.426957 6.62387,-3.638776 1.3493,-0.96607 3.16621,-1.866106 3.63199,-3.574115 -0.3391,-2.330084 -2.60117,-3.731591 -4.33593,-5.042968 -4.79935,-3.13061 -10.33384,-5.454145 -16.12305,-5.623047 -1.36778,-0.427858 -2.36742,-1.710371 -3.08399,-2.84961 -1.9227,-4.770315 -4.87096,-9.1639436 -8.53125,-12.7753902 -1.01537,-0.9086816 -2.24762,-1.84532689 -3.6875,-1.74804692 z m 0.98243,4.88476562 c 2.36785,0.9523857 3.75026,3.360998 5.16787,5.3566525 2.01723,3.068308 3.45479,6.542909 3.75872,10.22824 0.38589,0.945453 -0.19943,3.118901 1.39859,2.532101 4.99587,-0.156466 10.32662,-1.528761 15.08667,0.631326 2.32727,1.101926 4.4118,2.642095 6.6194,3.956759 -5.58875,2.260164 -11.58372,3.979564 -16.4232,7.702913 -0.71082,0.526791 -1.739,1.803788 -0.64516,2.48654 1.48079,0.700378 3.28246,0.114116 4.67291,1.146196 3.17835,1.862298 6.08972,4.482336 7.77045,7.801069 0.62371,1.031882 0.37401,2.910652 -1.16831,2.734007 -3.67628,-0.07503 -7.31863,-1.078196 -11.02863,-0.690946 -1.16849,0.154648 -2.79898,0.214238 -3.42806,1.363189 0.0315,1.478264 1.55929,2.406068 2.40213,3.470186 2.86201,2.731085 5.90999,6.121156 5.52951,10.355205 -0.25793,0.79611 0.63233,3.589569 -0.69132,2.531778 -4.61826,-2.831441 -9.65333,-5.684263 -15.24968,-5.536941 -4.44043,0.05371 -8.691649,1.804781 -12.462194,4.025638 -1.711067,1.064731 -0.828765,3.307993 -0.736745,4.900762 0.512726,6.691508 0.637428,13.581205 -1.100299,20.091263 -0.479744,2.201011 -2.365554,4.008824 -2.236328,6.335937 0.336341,1.978299 3.35438,2.820247 2.605469,5.064458 -2.558859,5.63224 -7.060977,10.06369 -11.748626,13.97585 -2.236239,1.88062 -5.036066,3.40077 -6.452546,6.05735 -0.582678,1.22406 1.211828,2.12552 0.421875,3.35937 -1.476627,2.77972 -4.413826,4.20446 -7.091026,5.55936 -5.731151,2.71498 -12.163934,3.29016 -18.418739,3.47385 C 37.663785,134.5457 26.641382,128.70601 18.780283,120.39051 11.507704,112.89196 5.8364049,103.20012 5.2207031,92.580078 4.6262853,84.38386 7.2444653,76.334811 11.05675,69.167163 c 0.96611,-1.631846 1.656459,-3.711614 3.386609,-4.694507 1.628061,-0.542135 2.296066,2.176784 3.921875,1.429688 2.091157,-1.259847 2.924969,-3.771037 4.567307,-5.493168 3.727839,-4.418294 7.938398,-8.645615 12.990186,-11.499214 1.53704,-0.913813 3.826961,-1.056936 5.165164,0.234569 0.140835,1.09076 1.624646,0.56156 2.339843,0.484375 4.003162,-0.926781 7.704575,-2.940846 11.815366,-3.360831 5.696502,-0.853317 11.612423,-0.425597 17.081119,1.438956 1.650723,0.561043 2.778381,-1.069778 3.196553,-2.436002 2.003849,-4.676834 2.378593,-10.44106 -0.557477,-14.823501 -1.497801,-2.517585 -4.379136,-4.035391 -5.428139,-6.826434 0.740537,-0.970514 2.342187,-0.441826 3.426187,-0.379916 4.497346,0.738588 8.839774,2.527034 12.36121,5.453384 1.260055,1.216182 1.859105,1.163729 1.527682,-0.682372 0.182532,-4.180935 -0.462456,-8.528275 -2.747289,-12.111155 -0.397257,-1.020913 -1.515718,-2.285496 -0.768962,-3.348301 2.532746,-1.169606 5.026637,0.717385 6.997735,2.148204 2.805102,1.938758 4.753498,4.92965 7.697578,6.677968 1.454378,0.631622 2.231903,-1.279764 2.574223,-2.365234 1.24971,-3.975821 0.57771,-8.203757 1.36914,-12.2421876 0.15673,-0.3518813 0.21054,-1.3700509 0.78125,-1.2167969 z"
       id="path1113"
       inkscape:connector-curvature="0" />
  </g>
</svg>
