<?xml version="1.0" encoding="UTF-8" standalone="no"?>
<!-- Created with Inkscape (http://www.inkscape.org/) -->

<svg
   xmlns:dc="http://purl.org/dc/elements/1.1/"
   xmlns:cc="http://creativecommons.org/ns#"
   xmlns:rdf="http://www.w3.org/1999/02/22-rdf-syntax-ns#"
   xmlns:svg="http://www.w3.org/2000/svg"
   xmlns="http://www.w3.org/2000/svg"
   xmlns:sodipodi="http://sodipodi.sourceforge.net/DTD/sodipodi-0.dtd"
   xmlns:inkscape="http://www.inkscape.org/namespaces/inkscape"
   sodipodi:docname="logo01.svg"
   inkscape:version="0.92.4 (5da689c313, 2019-01-14)"
   id="svg1680"
   version="1.1"
   viewBox="0 0 400 200"
   height="200mm"
   width="400mm">
  <defs
     id="defs1674">
    <inkscape:path-effect
       effect="envelope"
       id="path-effect6360"
       is_visible="true"
       yy="true"
       xx="false"
       bendpath1="m 69.391059,124.41043 c 102.895811,100.9983 206.587741,101.68407 311.092141,0"
       bendpath2="M 380.4832,124.41043 V 265.42977"
       bendpath3="M 69.391059,265.42977 H 380.4832"
       bendpath4="M 69.391059,124.41043 V 265.42977"
       bendpath1-nodetypes="cc" />
    <inkscape:path-effect
       effect="envelope"
       id="path-effect6246"
       is_visible="true"
       yy="true"
       xx="true"
       bendpath1="M 251.69057,58.206421 H 562.78271"
       bendpath2="M 562.78271,58.206421 V 159.91426"
       bendpath3="M 251.69057,159.91426 H 562.78271"
       bendpath4="M 251.69057,58.206421 V 159.91426" />
    <inkscape:path-effect
       effect="envelope"
       id="path-effect2541"
       is_visible="true"
       yy="true"
       xx="true"
       bendpath1="M 251.69057,58.206421 H 562.78271"
       bendpath2="M 562.78271,58.206421 V 159.91426"
       bendpath3="M 251.69057,159.91426 H 562.78271"
       bendpath4="M 251.69057,58.206421 V 159.91426" />
  </defs>
  <sodipodi:namedview
     id="base"
     pagecolor="#ffffff"
     bordercolor="#666666"
     borderopacity="1.0"
     inkscape:pageopacity="0.0"
     inkscape:pageshadow="2"
     inkscape:zoom="0.87723259"
     inkscape:cx="635.72606"
     inkscape:cy="360.19607"
     inkscape:document-units="mm"
     inkscape:current-layer="layer1"
     showgrid="false"
     inkscape:window-width="1920"
     inkscape:window-height="1001"
     inkscape:window-x="-9"
     inkscape:window-y="41"
     inkscape:window-maximized="1"
     units="mm"
     inkscape:pagecheckerboard="true"
     width="300mm" />
  <metadata
     id="metadata1677">
    <rdf:RDF>
      <cc:Work
         rdf:about="">
        <dc:format>image/svg+xml</dc:format>
        <dc:type
           rdf:resource="http://purl.org/dc/dcmitype/StillImage" />
        <dc:title />
      </cc:Work>
    </rdf:RDF>
  </metadata>
  <g
     inkscape:label="Layer 1"
     inkscape:groupmode="layer"
     id="layer1"
     transform="translate(0,-97)">
    <g
       id="g6302"
       inkscape:path-effect="#path-effect6360"
       transform="translate(-25.05834,14.764889)">
      <g
         inkscape:path-effect="#path-effect6246"
         transform="translate(-182.04782,105.57372)"
         id="text2227"
         style="font-style:normal;font-variant:normal;font-weight:normal;font-stretch:normal;font-size:10.58333302px;line-height:1.25;font-family:Impact;-inkscape-font-specification:Impact;letter-spacing:0px;word-spacing:0px;fill:#ffffff;fill-opacity:1;stroke:none;stroke-width:0.26458332"
         aria-label="LEMON">
        <path
           inkscape:original-d="m 277.07231,60.256252 v 78.074478 h 15.43403 v 19.5337 H 251.69057 V 60.256252 Z"
           inkscape:connector-curvature="0"
           id="path2464"
           style="font-size:123.472229px;fill:#ffffff;fill-opacity:1;stroke-width:0.26458332"
           d="m 255.28928,67.202335 c -6.23591,19.849459 -3.15333,43.089045 9.24775,69.718755 5.28261,0.77898 10.60372,1.54487 15.96402,2.29413 2.98617,6.00537 6.51694,12.19339 10.59231,18.56405 -13.6731,-0.20232 -27.31672,-0.41551 -40.93208,-0.63315 -22.10549,-41.52829 -28.44257,-76.615934 -19.01125,-105.26294 7.77178,5.257469 15.81366,10.388114 24.13925,15.319155 z" />
        <path
           inkscape:original-d="m 298.71613,60.256252 h 42.323 v 19.533693 h -16.94126 v 18.508776 h 15.85605 v 18.569069 h -15.85605 v 21.46294 h 18.62935 v 19.5337 h -44.01109 z"
           inkscape:connector-curvature="0"
           id="path2466"
           style="font-size:123.472229px;fill:#ffffff;fill-opacity:1;stroke-width:0.26458332"
           d="m 277.21507,79.336344 c 12.93698,6.656313 26.50934,12.749576 40.75999,18.050062 1.96901,0.733448 3.95189,1.445685 5.94805,2.136042 -0.79943,3.527392 -1.22426,7.135472 -1.27448,10.824242 -2.03328,-0.60126 -4.05407,-1.22171 -6.06191,-1.86079 -4.61735,-1.46366 -9.17084,-2.9903 -13.66159,-4.57396 -0.10035,3.84517 0.19721,7.79627 0.89268,11.85332 4.49649,1.29381 9.04751,2.54494 13.65391,3.74879 1.57618,0.41506 3.15935,0.82053 4.74932,1.2162 0.63317,3.67678 1.60934,7.42865 2.92849,11.25562 -1.55145,-0.29538 -3.09758,-0.59811 -4.63825,-0.90804 -4.50915,-0.89615 -8.9752,-1.82452 -13.39875,-2.7819 1.73232,4.95108 3.99971,10.04461 6.80216,15.28061 4.241,0.51156 8.5059,1.00904 12.795,1.49081 2.47064,0.28287 4.95007,0.55454 7.438,0.81468 2.15289,4.11739 4.67261,8.31178 7.55915,12.58318 -2.28533,-0.027 -4.56974,-0.0552 -6.85321,-0.0846 -12.5311,-0.15681 -25.03662,-0.32836 -37.51747,-0.50977 C 277.47003,127.43849 270.763,101.26033 277.21507,79.336344 Z" />
        <path
           inkscape:original-d="M 428.39814,60.256252 V 157.86443 H 406.21172 V 91.968358 l -8.86251,65.896072 H 381.61374 L 372.26892,93.475587 V 157.86443 H 350.0825 V 60.256252 h 32.8576 q 1.44694,8.80222 3.07475,20.739476 l 3.49677,24.839142 5.78776,-45.578618 z"
           inkscape:connector-curvature="0"
           id="path2468"
           style="font-size:123.472229px;fill:#ffffff;fill-opacity:1;stroke-width:0.26458332"
           d="m 434.82597,112.11849 c 1.42042,15.26393 -0.62425,30.8322 -6.134,46.70483 -7.38978,0.034 -14.78717,0.0534 -22.19119,0.0572 -0.12342,-7e-5 -0.24684,-1.5e-4 -0.37025,-2.3e-4 -0.12106,-10.12905 -0.197,-20.257 -0.22782,-30.38386 -3.91924,10.11641 -7.48668,20.08503 -8.78932,30.37005 -5.33465,-0.0127 -10.66565,-0.0333 -15.99262,-0.0614 -7.43255,-10.71486 -14.4775,-21.6449 -19.44115,-32.91847 0.9823,10.66796 4.30059,21.62146 9.95488,32.8605 -7.50392,-0.052 -14.99942,-0.11849 -22.48546,-0.19823 -13.10627,-20.06606 -17.92803,-38.58545 -14.46528,-55.55815 13.17669,3.9405 26.86333,6.92005 40.90224,8.75899 0.9766,2.97176 2.09746,6.29804 3.55426,10.24102 1.547,4.06252 3.30958,8.09287 5.18809,12.10123 1.76588,-7.01941 4.37346,-13.89013 7.24085,-20.76081 4.90118,0.32789 9.83686,0.51349 14.80067,0.54953 9.60533,-0.046 19.10595,-0.65102 28.4561,-1.76216 z" />
        <path
           inkscape:original-d="m 496.5852,117.41039 q 0,14.71056 -0.72347,20.86005 -0.66318,6.08921 -4.34082,11.1535 -3.61735,5.06429 -9.82714,7.7773 -6.20978,2.71302 -14.4694,2.71302 -7.83759,0 -14.10767,-2.53215 -6.20978,-2.59243 -10.008,-7.71701 -3.79822,-5.12458 -4.52169,-11.1535 -0.72347,-6.02892 -0.72347,-21.10121 v -16.7001 q 0,-14.71056 0.66318,-20.799767 0.72347,-6.149496 4.34082,-11.213786 3.67764,-5.064291 9.88743,-7.777304 6.20978,-2.713012 14.4694,-2.713012 7.83759,0 14.04738,2.592434 6.27007,2.532145 10.06829,7.656725 3.79822,5.12458 4.52169,11.153497 0.72347,6.028918 0.72347,21.101213 z M 471.20345,85.336549 q 0,-6.812677 -0.78375,-8.681641 -0.72348,-1.929254 -3.07475,-1.929254 -1.98955,0 -3.07475,1.567519 -1.02492,1.507229 -1.02492,9.043376 v 45.578611 q 0,8.50078 0.66318,10.49032 0.72347,1.98954 3.25562,1.98954 2.59243,0 3.3159,-2.29098 0.72347,-2.29099 0.72347,-10.91235 z"
           inkscape:connector-curvature="0"
           id="path2470"
           style="font-size:123.472229px;fill:#ffffff;fill-opacity:1;stroke-width:0.26458332"
           d="m 513.97103,127.03753 c -2.45584,7.02566 -5.57344,12.62779 -7.66633,15.70981 -2.11932,3.17205 -5.33012,6.2192 -9.47292,8.9545 -4.11307,2.74068 -8.74654,4.78691 -13.82609,6.15515 -1.65688,0.44631 -3.33224,0.81044 -5.02953,1.09803 -3.50537,0.59439 -7.08111,0.85753 -10.79258,0.85885 -5.20344,0.002 -9.59016,-0.52825 -13.24845,-1.43404 -3.61283,-0.9311 -6.32879,-2.26842 -8.1869,-3.9693 -1.86503,-1.70722 -2.78886,-3.52638 -2.60361,-5.53645 0.19664,-2.13367 1.08988,-5.41933 2.25993,-10.55135 0.6327,-2.77511 1.1232,-5.53426 1.4715,-8.27743 0.63037,-4.96473 0.89117,-8.10446 1.49116,-10.29887 0.6167,-2.09359 2.38919,-4.16845 5.31381,-6.37721 2.97444,-2.21709 6.92994,-4.31426 11.88406,-6.45639 4.9345,-2.13366 10.70666,-4.21776 17.23625,-6.31537 4.3624,-1.401406 8.37976,-2.574563 12.13505,-3.454762 1.57845,-0.366815 3.10481,-0.675612 4.58144,-0.921813 4.98985,-0.865415 9.08815,-0.901474 12.27251,0.05958 3.17223,0.957395 5.11211,2.650052 5.74316,5.052495 0.60179,2.29105 0.96186,7.00978 -0.34027,13.85226 -0.73356,3.85476 -1.80762,7.80552 -3.22219,11.85231 z M 488.978,114.02518 c 0.1082,-2.57424 -0.30254,-4.11575 -0.95084,-4.61585 -0.61521,-0.54781 -1.86998,-0.53185 -3.76557,0.005 -1.60499,0.45478 -2.83153,1.07763 -3.688,1.87507 -0.82478,0.77815 -1.13244,2.47127 -1.24973,5.21947 -0.35342,8.28059 -2.49796,16.89223 -6.43361,25.83491 -1.48093,3.36498 -2.34291,5.38069 -2.27582,6.168 0.10822,0.75189 1.06409,1.07246 2.89147,0.92967 1.86988,-0.14611 3.33421,-0.72159 4.38657,-1.73972 1.01554,-0.9825 2.60143,-3.38731 4.21396,-6.94431 4.22356,-9.31652 6.51408,-18.22736 6.87157,-26.73252 z" />
        <path
           inkscape:original-d="m 562.78271,60.256252 v 97.608178 h -22.2467 l -13.20333,-44.37284 v 44.37284 H 506.11089 V 60.256252 h 21.22179 l 14.22825,43.950808 V 60.256252 Z"
           inkscape:connector-curvature="0"
           id="path2472"
           style="font-size:123.472229px;fill:#ffffff;fill-opacity:1;stroke-width:0.26458332"
           d="m 583.06367,51.746406 c 9.41282,28.745981 3.11392,63.879404 -18.89671,105.400264 -7.4209,0.11774 -14.85008,0.23419 -22.28772,0.34832 5.32035,-16.39892 7.30969,-30.21536 6.31143,-41.98874 -3.64268,13.07149 -10.1637,27.13459 -19.56305,42.18927 -7.10464,0.1059 -14.21708,0.20914 -21.3375,0.30881 18.92955,-28.39037 25.44155,-53.01655 19.53597,-73.878545 7.55282,-3.609693 14.89904,-7.418532 22.04649,-11.384524 8.03467,7.941304 13.51202,17.620234 16.02735,29.608839 2.35256,-13.701408 1.71359,-26.296462 -1.9169,-37.785164 6.88444,-4.157842 13.57538,-8.444683 20.08064,-12.81853 z" />
      </g>
    </g>
    <g
       transform="matrix(0.93487436,0,0,0.93487436,143.03468,98.405691)"
       id="g1111">
      <path
         inkscape:connector-curvature="0"
         id="path1121"
         d="M 37.333333,135.94035 C 21.223689,130.05878 7.6370975,115.41681 3.2499776,99.209483 0.93392305,90.653285 0.92830868,89.848012 3.1262051,81.456699 5.963752,70.623275 10.827506,63.022071 16.421712,60.678128 18.756437,59.699891 22.166667,57.265803 24,55.269045 c 1.833333,-1.996757 5.665096,-5.343164 8.515028,-7.436458 4.196848,-3.082615 6.097475,-3.66487 10,-3.063488 2.851553,0.439425 7.19278,-0.107787 10.635483,-1.34059 4.051433,-1.45079 7.997448,-1.826844 13,-1.238892 l 7.182822,0.8442 v -4.803846 c 0,-3.504282 -1.155665,-6.120079 -4.271921,-9.669296 -4.16066,-4.738732 -4.204068,-4.915858 -1.666667,-6.80087 1.603896,-1.191517 4.790608,-1.769274 8.290928,-1.503158 4.647167,0.353305 5.532803,0.06492 4.848728,-1.57886 -2.159493,-5.189112 -2.162821,-7.164456 -0.01472,-8.7351881 1.830151,-1.338239 3.544375,-1.2505638 8.874315,0.4538831 C 93.0273,11.558365 96,12.994473 96,13.587832 c 0,0.593359 0.496084,1.078835 1.102409,1.078835 0.606326,0 0.848339,-1.731096 0.537808,-3.84688 -0.581049,-3.9589387 1.538563,-9.4864537 3.637723,-9.4864537 2.58393,0 9.37696,7.0772831 11.57507,12.0594117 1.67447,3.795274 3.13369,5.273922 5.20462,5.273922 6.84961,0 19.2757,6.439274 19.2757,9.988782 0,0.993958 -3.15,3.331191 -7,5.193848 -3.85,1.862659 -6.1,3.415991 -5,3.45185 2.07891,0.06777 6.9779,6.711334 8.51108,11.541962 1.28416,4.046039 -2.14074,6.340752 -8.03588,5.384103 -3.9304,-0.637815 -4.45526,-0.482937 -2.80391,0.827375 2.99881,2.379497 4.07639,10.535745 1.80276,13.645122 -1.84726,2.52628 -1.98084,2.519483 -7.82274,-0.398104 -6.01214,-3.002608 -11.05111,-3.62783 -16.81168,-2.085953 -2.945349,0.788356 -3.106144,1.308719 -2.3634,7.648461 0.492197,4.201187 0.06117,9.587948 -1.127141,14.086338 -1.058259,4.006081 -1.595902,8.591458 -1.194762,10.189728 0.997,3.972361 -2.067304,9.390431 -9.346905,16.526491 -3.366381,3.3 -6.125207,6.66908 -6.130723,7.48685 -0.02251,3.33617 -6.259644,9.06596 -13.246928,12.16936 -10.059784,4.46805 -20.109182,5.02037 -29.429768,1.61747 z"
         style="fill:#fcd60a;stroke-width:1.33333337" />
      <path
         inkscape:connector-curvature="0"
         id="path1119"
         d="M 37.333333,135.94035 C 21.223689,130.05878 7.6370975,115.41681 3.2499776,99.209483 0.93392305,90.653285 0.92830868,89.848012 3.1262051,81.456699 5.963752,70.623275 10.827506,63.022071 16.421712,60.678128 18.756437,59.699891 22.166667,57.265803 24,55.269045 c 1.833333,-1.996757 5.665096,-5.343164 8.515028,-7.436458 4.196848,-3.082615 6.097475,-3.66487 10,-3.063488 2.851553,0.439425 7.19278,-0.107787 10.635483,-1.34059 4.051433,-1.45079 7.997448,-1.826844 13,-1.238892 l 7.182822,0.8442 v -4.803846 c 0,-3.504282 -1.155665,-6.120079 -4.271921,-9.669296 -4.16066,-4.738732 -4.204068,-4.915858 -1.666667,-6.80087 1.603896,-1.191517 4.790608,-1.769274 8.290928,-1.503158 4.647167,0.353305 5.532803,0.06492 4.848728,-1.57886 -2.159493,-5.189112 -2.162821,-7.164456 -0.01472,-8.7351881 1.830151,-1.338239 3.544375,-1.2505638 8.874315,0.4538831 C 93.0273,11.558365 96,12.994473 96,13.587832 c 0,0.593359 0.496084,1.078835 1.102409,1.078835 0.606326,0 0.848339,-1.731096 0.537808,-3.84688 -0.581049,-3.9589387 1.538563,-9.4864537 3.637723,-9.4864537 2.58393,0 9.37696,7.0772831 11.57507,12.0594117 1.67447,3.795274 3.13369,5.273922 5.20462,5.273922 6.84961,0 19.2757,6.439274 19.2757,9.988782 0,0.993958 -3.15,3.331191 -7,5.193848 -3.85,1.862659 -6.1,3.415991 -5,3.45185 2.07891,0.06777 6.9779,6.711334 8.51108,11.541962 1.28416,4.046039 -2.14074,6.340752 -8.03588,5.384103 -3.9304,-0.637815 -4.45526,-0.482937 -2.80391,0.827375 2.99881,2.379497 4.07639,10.535745 1.80276,13.645122 -1.84726,2.52628 -1.98084,2.519483 -7.82274,-0.398104 -6.01214,-3.002608 -11.05111,-3.62783 -16.81168,-2.085953 -2.945349,0.788356 -3.106144,1.308719 -2.3634,7.648461 0.492197,4.201187 0.06117,9.587948 -1.127141,14.086338 -1.058259,4.006081 -1.595902,8.591458 -1.194762,10.189728 0.997,3.972361 -2.067304,9.390431 -9.346905,16.526491 -3.366381,3.3 -6.125207,6.66908 -6.130723,7.48685 -0.02251,3.33617 -6.259644,9.06596 -13.246928,12.16936 -10.059784,4.46805 -20.109182,5.02037 -29.429768,1.61747 z m 26.546384,-3.23124 c 3.051576,-1.07666 6.814686,-2.84456 8.362464,-3.92867 2.768047,-1.93881 2.734511,-2.00908 -2.047352,-4.28939 -6.134018,-2.92511 -6.294336,-5.05663 -0.295682,-3.93127 4.017446,0.75367 5.392881,0.17098 11.452148,-4.85162 5.99394,-4.96844 15.124338,-16.474253 11.098826,-13.98635 -1.610374,0.99527 -9.640656,-1.30386 -11.783454,-3.373685 -0.862614,-0.833237 0.637617,-1.112417 4.249457,-0.79079 3.070536,0.273425 5.341647,0.25599 5.046912,-0.03875 -0.294733,-0.294733 0.08496,-1.695928 0.843763,-3.113765 0.758804,-1.417838 1.58604,-3.588948 1.838301,-4.82469 0.252263,-1.235742 0.874507,-3.296804 1.382764,-4.580137 0.76576,-1.933517 0.157147,-2.349391 -3.551879,-2.427047 -2.461792,-0.05154 -5.675985,-0.567984 -7.142652,-1.147652 -2.168037,-0.85687 -1.616229,-1.233688 2.95107,-2.015217 3.089754,-0.5287 6.195457,-0.604221 6.901562,-0.167825 0.762403,0.471192 1.130047,-1.365562 0.905194,-4.52237 -0.727027,-10.207088 -20.26993,-29.223896 -30.156758,-29.344938 -3.10438,-0.03801 -3.351785,0.362242 -2.854877,4.618613 0.645227,5.526836 -0.616085,9.669879 -2.400623,7.885341 -0.678522,-0.678519 -1.408853,-3.77797 -1.622956,-6.887666 C 56.841843,47.881537 56.366667,45.333393 56,45.328692 c -0.366667,-0.0047 -3.516667,1.012947 -7,2.261439 -6.122548,2.194438 -6.333333,2.4476 -6.333333,7.606594 0,6.116543 -1.564278,5.244904 -3.942334,-2.196725 -0.878793,-2.75 -2.067346,-5 -2.64123,-5 -1.469606,0 -10.827915,8.963439 -14.425862,13.817165 -2.295252,3.096358 -2.813765,5.102748 -2.184945,8.45465 0.530731,2.829036 0.296567,4.394852 -0.657241,4.394852 -0.814947,0 -1.490755,-0.15 -1.501796,-0.333334 C 17.302217,74.15 16.449813,71.6 15.419027,68.666667 L 13.544871,63.333333 9.2724355,72.420931 C 1.368546,89.232737 4.3334711,105.25144 18.066555,119.93321 c 8.983016,9.60357 19.885241,14.73346 31.312106,14.73346 4.924004,0 11.449479,-0.88091 14.501056,-1.95756 z M 48.911111,129.8 C 48.41,129.29889 48,126.95566 48,124.59283 48,120.7387 47.519953,120.20672 43.333333,119.4213 36.384412,118.11768 37.613632,115.78632 45,116.26028 l 6.333333,0.40639 0.418848,5.84782 c 0.404819,5.65192 -0.964145,9.16244 -2.84107,7.28551 z m -21.4043,-11.01562 c -0.775638,-4.85057 -1.207514,-5.27872 -6.170411,-6.11719 -6.12968,-1.03561 -6.934333,-2.882 -1.815824,-4.16666 7.930847,-1.99052 13.969409,4.04805 11.978893,11.97889 -1.273885,5.07557 -3.029154,4.33039 -3.992658,-1.69504 z M 71.747319,107.26421 C 71.353444,101.13594 71.10664,100.7656 66.666667,99.64048 59.227731,97.7554 58.731764,96 65.638095,96 c 8.326566,0 10.921413,2.630712 9.760778,9.89569 -1.29353,8.09685 -3.17382,8.80154 -3.651554,1.36852 z m -21.341826,-2.65096 c -0.420504,-0.70395 -1.18414,-3.81593 -1.69697,-6.91551 -0.922235,-5.574048 -1.004,-5.645089 -7.487136,-6.505108 C 32.472388,90.032037 32.864047,88 41.83674,88 c 7.569432,0 9.257327,1.071088 10.603356,6.728575 0.885691,3.722642 -0.806015,11.941435 -2.034603,9.884675 z M 20.578696,96.666667 C 20.097187,94.1 19.019999,91.908612 18.184945,91.796915 17.349892,91.685217 16.066667,91.454427 15.333333,91.284047 14.6,91.113668 12.83,90.905056 11.4,90.820467 7.7948713,90.607209 10.335893,88.49076 15.501717,87.404092 21.071083,86.232537 24,89.227925 24,96.095239 c 0,6.497121 -2.239467,6.871161 -3.421304,0.571428 z M 72,79.420133 c 0,-7.118054 -2.171877,-9.849208 -8.598731,-10.812973 -3.337365,-0.500469 -6.067936,-1.441817 -6.067936,-2.091885 0,-1.786251 13.898324,-1.416951 15.733334,0.418058 1.926549,1.92655 2.160562,15.733334 0.266666,15.733334 C 72.6,82.666667 72,81.205727 72,79.420133 Z m -30.213337,-2.0868 c -0.805674,-1.833333 -1.692474,-4.533333 -1.97067,-6 -0.401174,-2.115017 -1.88254,-2.818205 -7.160901,-3.3992 -6.562921,-0.722388 -6.603108,-0.754704 -2.901625,-2.333333 9.781272,-4.171573 14.764533,-0.794909 13.946468,9.450141 -0.42585,5.333142 -0.522127,5.447991 -1.913272,2.282392 z"
         style="fill:#73dd87;stroke-width:1.33333337" />
      <path
         inkscape:connector-curvature="0"
         id="path1117"
         d="M 37.333333,135.94035 C 21.223689,130.05878 7.6370975,115.41681 3.2499776,99.209483 0.93392305,90.653285 0.92830868,89.848012 3.1262051,81.456699 5.963752,70.623275 10.827506,63.022071 16.421712,60.678128 18.756437,59.699891 22.166667,57.265803 24,55.269045 c 1.833333,-1.996757 5.665096,-5.343164 8.515028,-7.436458 4.196848,-3.082615 6.097475,-3.66487 10,-3.063488 2.851553,0.439425 7.19278,-0.107787 10.635483,-1.34059 4.051433,-1.45079 7.997448,-1.826844 13,-1.238892 l 7.182822,0.8442 v -4.803846 c 0,-3.504282 -1.155665,-6.120079 -4.271921,-9.669296 -4.10484,-4.675156 -4.173096,-4.937712 -1.74516,-6.713063 3.092412,-2.261227 10.247697,-2.416996 12.394859,-0.269835 2.571858,2.571859 3.406853,0.18399 1.091554,-3.121562 -2.737501,-3.908331 -2.720782,-7.32978 0.04338,-8.8766822 C 83.645671,8.0127828 96,11.824069 96,14.254499 96,15.214524 96.652739,16 97.450531,16 c 0.937208,0 1.152081,-1.769431 0.607184,-5 -1.126558,-6.6790905 1.546572,-10.68584764 5.660305,-8.4842431 3.39242,1.8155652 8.94473,8.9622321 10.21707,13.1509101 0.59815,1.969161 1.95741,3 3.9558,3 7.06827,0 19.44244,6.39871 19.44244,10.053728 0,1.029678 -3.09969,3.205593 -6.88819,4.835365 -3.86818,1.664044 -6.06035,3.236577 -5,3.586703 2.32547,0.767868 4.47791,3.50944 7.27648,9.268069 2.96461,6.100288 0.74479,8.803939 -6.43748,7.840595 -4.73163,-0.634644 -4.9975,-0.507804 -3.20371,1.528397 3.06776,3.482339 3.9412,9.892016 1.75534,12.881359 -1.88595,2.579193 -1.97563,2.575089 -7.85113,-0.359278 -6.01214,-3.002608 -11.05111,-3.62783 -16.81168,-2.085953 -2.945349,0.788356 -3.106144,1.308719 -2.3634,7.648461 0.492197,4.201187 0.06117,9.587948 -1.127141,14.086338 -1.058259,4.006081 -1.595902,8.591458 -1.194762,10.189728 0.997,3.972361 -2.067304,9.390431 -9.346905,16.526491 -3.366381,3.3 -6.125207,6.66908 -6.130723,7.48685 -0.02251,3.33617 -6.259644,9.06596 -13.246928,12.16936 -10.059784,4.46805 -20.109182,5.02037 -29.429768,1.61747 z m 26.546384,-3.23124 c 3.051576,-1.07666 6.814686,-2.84456 8.362464,-3.92867 2.768047,-1.93881 2.734511,-2.00908 -2.047352,-4.28939 -6.134018,-2.92511 -6.294336,-5.05663 -0.295682,-3.93127 4.017446,0.75367 5.392881,0.17098 11.452148,-4.85162 5.99394,-4.96844 15.124338,-16.474253 11.098826,-13.98635 -1.610374,0.99527 -9.640656,-1.30386 -11.783454,-3.373685 -0.862614,-0.833237 0.637617,-1.112417 4.249457,-0.79079 3.070536,0.273425 5.341647,0.25599 5.046912,-0.03875 -0.294733,-0.294733 0.08496,-1.695928 0.843763,-3.113765 0.758804,-1.417838 1.58604,-3.588948 1.838301,-4.82469 0.252263,-1.235742 0.874507,-3.296804 1.382764,-4.580137 0.76576,-1.933517 0.157147,-2.349391 -3.551879,-2.427047 -2.461792,-0.05154 -5.675985,-0.567984 -7.142652,-1.147652 -2.168037,-0.85687 -1.616229,-1.233688 2.95107,-2.015217 3.089754,-0.5287 6.195457,-0.604221 6.901562,-0.167825 0.762403,0.471192 1.130047,-1.365562 0.905194,-4.52237 -0.727027,-10.207088 -20.26993,-29.223896 -30.156758,-29.344938 -3.10438,-0.03801 -3.351785,0.362242 -2.854877,4.618613 0.645227,5.526836 -0.616085,9.669879 -2.400623,7.885341 -0.678522,-0.678519 -1.408853,-3.77797 -1.622956,-6.887666 C 56.841843,47.881537 56.366667,45.333393 56,45.328692 c -0.366667,-0.0047 -3.516667,1.012947 -7,2.261439 -6.122548,2.194438 -6.333333,2.4476 -6.333333,7.606594 0,6.116543 -1.564278,5.244904 -3.942334,-2.196725 -0.878793,-2.75 -2.067346,-5 -2.64123,-5 -1.469606,0 -10.827915,8.963439 -14.425862,13.817165 -2.295252,3.096358 -2.813765,5.102748 -2.184945,8.45465 0.530731,2.829036 0.296567,4.394852 -0.657241,4.394852 -0.814947,0 -1.490755,-0.15 -1.501796,-0.333334 C 17.302217,74.15 16.449813,71.6 15.419027,68.666667 L 13.544871,63.333333 9.2724355,72.420931 C 1.368546,89.232737 4.3334711,105.25144 18.066555,119.93321 c 8.983016,9.60357 19.885241,14.73346 31.312106,14.73346 4.924004,0 11.449479,-0.88091 14.501056,-1.95756 z M 48.911111,129.8 C 48.41,129.29889 48,126.95566 48,124.59283 48,120.7387 47.519953,120.20672 43.333333,119.4213 36.384412,118.11768 37.613632,115.78632 45,116.26028 l 6.333333,0.40639 0.418848,5.84782 c 0.404819,5.65192 -0.964145,9.16244 -2.84107,7.28551 z m -21.4043,-11.01562 c -0.775638,-4.85057 -1.207514,-5.27872 -6.170411,-6.11719 -6.12968,-1.03561 -6.934333,-2.882 -1.815824,-4.16666 7.930847,-1.99052 13.969409,4.04805 11.978893,11.97889 -1.273885,5.07557 -3.029154,4.33039 -3.992658,-1.69504 z M 71.747319,107.26421 C 71.353444,101.13594 71.10664,100.7656 66.666667,99.64048 59.227731,97.7554 58.731764,96 65.638095,96 c 8.326566,0 10.921413,2.630712 9.760778,9.89569 -1.29353,8.09685 -3.17382,8.80154 -3.651554,1.36852 z m -21.341826,-2.65096 c -0.420504,-0.70395 -1.18414,-3.81593 -1.69697,-6.91551 -0.922235,-5.574048 -1.004,-5.645089 -7.487136,-6.505108 C 32.472388,90.032037 32.864047,88 41.83674,88 c 7.569432,0 9.257327,1.071088 10.603356,6.728575 0.885691,3.722642 -0.806015,11.941435 -2.034603,9.884675 z M 20.578696,96.666667 C 20.097187,94.1 19.019999,91.908612 18.184945,91.796915 17.349892,91.685217 16.066667,91.454427 15.333333,91.284047 14.6,91.113668 12.83,90.905056 11.4,90.820467 7.7948713,90.607209 10.335893,88.49076 15.501717,87.404092 21.071083,86.232537 24,89.227925 24,96.095239 c 0,6.497121 -2.239467,6.871161 -3.421304,0.571428 z M 72,79.420133 c 0,-7.118054 -2.171877,-9.849208 -8.598731,-10.812973 -3.337365,-0.500469 -6.067936,-1.441817 -6.067936,-2.091885 0,-1.786251 13.898324,-1.416951 15.733334,0.418058 1.926549,1.92655 2.160562,15.733334 0.266666,15.733334 C 72.6,82.666667 72,81.205727 72,79.420133 Z m -30.213337,-2.0868 c -0.805674,-1.833333 -1.692474,-4.533333 -1.97067,-6 -0.401174,-2.115017 -1.88254,-2.818205 -7.160901,-3.3992 -6.562921,-0.722388 -6.603108,-0.754704 -2.901625,-2.333333 9.781272,-4.171573 14.764533,-0.794909 13.946468,9.450141 -0.42585,5.333142 -0.522127,5.447991 -1.913272,2.282392 z M 122.66667,63.866667 c 0,-5.888639 -7.40332,-13.199154 -12.39951,-12.244072 -4.15087,0.793489 -4.87558,3.044072 -0.98022,3.044072 3.52329,0 12.04639,7.644636 12.04639,10.804789 0,1.390699 0.3,2.528544 0.66667,2.528544 0.36667,0 0.66667,-1.86 0.66667,-4.133333 z M 100,53.843187 c 0,-3.082759 -4.433823,-7.17652 -7.77266,-7.17652 -1.233611,0 -1.528637,0.774037 -0.889357,2.333333 0.52614,1.283333 1.271553,4.91162 1.656473,8.062859 l 0.699853,5.729525 3.152846,-2.961944 C 98.58122,58.201371 100,55.507107 100,53.843187 Z m 29.37289,-8.435936 c -3.16125,-5.906856 -13.97753,-9.33594 -17.70155,-5.61192 -1.16179,1.161781 -0.80747,1.538002 1.44844,1.538002 3.64809,0 12.37917,4.319747 14.92068,7.382087 2.33909,2.818428 3.3148,0.395921 1.33243,-3.308169 z M 97.751175,41.666667 c -2.156686,-6.04985 -8.013719,-7.652343 -12.646187,-3.460016 -3.790733,3.430565 -2.982776,4.282568 4.561679,4.81036 3.85,0.269337 7.431169,0.600692 7.958153,0.736346 0.526985,0.135654 0.583844,-0.803357 0.12636,-2.08669 z m 12.184945,-3.543232 c 1.11533,-1.824023 0.64248,-2.9412 -2.34381,-5.537558 -4.69547,-4.082377 -6.81729,-4.17531 -5.76602,-0.252544 0.44218,1.65 0.81216,4.630666 0.82217,6.623702 0.0159,3.172058 0.38415,3.488329 2.95433,2.537557 1.61487,-0.597379 3.56487,-2.114399 4.33333,-3.371157 z M 85.209741,29.1024 C 83.547824,25.997079 80.483119,24.432809 73.975453,23.36826 l -5.308786,-0.868433 5.562724,2.63836 c 3.059497,1.451098 6.601961,4.224438 7.872141,6.162978 1.660137,2.53369 2.600353,3.053874 3.344243,1.850235 0.569153,-0.920909 0.462938,-2.74296 -0.236034,-4.049 z M 98.017524,22.721877 C 96.822452,18.956541 88.361809,12 84.977425,12 c -2.499972,0 -2.218622,0.483247 1.917803,3.294021 2.666173,1.811711 5.955455,5.644498 7.309513,8.517304 1.814686,3.850083 2.746202,4.729679 3.543236,3.34574 0.594722,-1.032649 0.716016,-3.028482 0.269547,-4.435188 z m 20.670606,4.36799 c 3.3118,-0.396423 8.26845,-0.100347 11.01478,0.657956 5.78138,1.596316 5.43185,-0.08112 -0.67493,-3.23906 -2.76288,-1.428742 -6.23101,-1.937663 -10.44511,-1.53274 l -6.30885,0.606201 -0.80294,-5.021263 c -0.71162,-4.450265 -6.9924,-14.1507559 -8.30944,-12.8337145 -0.27859,0.2785966 0.43926,2.4024375 1.59524,4.7196465 1.15597,2.317209 2.44569,7.545371 2.86604,11.618138 0.62823,6.087013 1.14512,7.257349 2.90401,6.575317 1.17685,-0.456343 4.84939,-1.154059 8.1612,-1.550481 z"
         style="fill:#f07e00;stroke-width:1.33333337" />
      <path
         inkscape:connector-curvature="0"
         id="path1115"
         d="M 37.333333,135.94035 C 21.223689,130.05878 7.6370975,115.41681 3.2499776,99.209483 0.93392305,90.653285 0.92830868,89.848012 3.1262051,81.456699 5.963752,70.623275 10.827506,63.022071 16.421712,60.678128 18.756437,59.699891 22.166667,57.265803 24,55.269045 c 1.833333,-1.996757 5.665096,-5.343164 8.515028,-7.436458 4.196848,-3.082615 6.097475,-3.66487 10,-3.063488 2.851553,0.439425 7.19278,-0.107787 10.635483,-1.34059 4.051433,-1.45079 7.997448,-1.826844 13,-1.238892 l 7.182822,0.8442 v -4.803846 c 0,-3.504282 -1.155665,-6.120079 -4.271921,-9.669296 -4.10484,-4.675156 -4.173096,-4.937712 -1.74516,-6.713063 3.092412,-2.261227 10.247697,-2.416996 12.394859,-0.269835 2.571858,2.571859 3.406853,0.18399 1.091554,-3.121562 -2.737501,-3.908331 -2.720782,-7.32978 0.04338,-8.8766822 C 83.645671,8.0127828 96,11.824069 96,14.254499 96,15.214524 96.652739,16 97.450531,16 c 0.937208,0 1.152081,-1.769431 0.607184,-5 -1.126558,-6.6790905 1.546572,-10.68584764 5.660305,-8.4842431 3.39242,1.8155652 8.94473,8.9622321 10.21707,13.1509101 0.59815,1.969161 1.95741,3 3.9558,3 7.06827,0 19.44244,6.39871 19.44244,10.053728 0,1.029678 -3.09969,3.205593 -6.88819,4.835365 -3.86818,1.664044 -6.06035,3.236577 -5,3.586703 2.32547,0.767868 4.47791,3.50944 7.27648,9.268069 2.96461,6.100288 0.74479,8.803939 -6.43748,7.840595 -4.73163,-0.634644 -4.9975,-0.507804 -3.20371,1.528397 3.06776,3.482339 3.9412,9.892016 1.75534,12.881359 -1.88595,2.579193 -1.97563,2.575089 -7.85113,-0.359278 -6.01214,-3.002608 -11.05111,-3.62783 -16.81168,-2.085953 -2.945349,0.788356 -3.106144,1.308719 -2.3634,7.648461 0.492197,4.201187 0.06117,9.587948 -1.127141,14.086338 -1.058259,4.006081 -1.595902,8.591458 -1.194762,10.189728 0.997,3.972361 -2.067304,9.390431 -9.346905,16.526491 -3.366381,3.3 -6.125207,6.66908 -6.130723,7.48685 -0.02251,3.33617 -6.259644,9.06596 -13.246928,12.16936 -10.059784,4.46805 -20.109182,5.02037 -29.429768,1.61747 z m 26.911535,-3.33623 c 7.536973,-2.5681 12.449331,-6.82776 10.534597,-9.13487 -0.993402,-1.19698 0.41383,-2.95529 5.262,-6.57479 3.639931,-2.71746 8.218846,-7.35979 10.175366,-10.31629 3.269329,-4.94029 3.383614,-5.54915 1.411724,-7.521045 -1.971891,-1.971889 -1.966616,-2.479312 0.06516,-6.268021 1.444505,-2.693607 2.227302,-7.398369 2.258516,-13.574099 0.0458,-9.061516 -0.17113,-9.721962 -5.255246,-16 C 82.526468,55.595443 81.342581,54.514929 73.405625,49.25884 66.177937,44.472447 57.995948,44.059965 48.04936,47.980544 44.355545,49.436509 41.333333,50.036509 41.333333,49.313877 41.333333,48.591245 39.888399,48 38.122368,48 c -3.339716,0 -13.068276,8.450152 -17.479543,15.182595 -1.658961,2.531894 -2.794192,3.199372 -3.774362,2.219201 -2.535459,-2.535459 -3.628723,-1.501188 -7.7718487,7.352468 -7.7106228,16.477221 -4.6397302,32.629106 8.9699407,47.178946 8.959664,9.57861 19.890496,14.73346 31.242224,14.73346 4.885568,0 11.606808,-0.92815 14.936089,-2.06255 z M 122.66667,63.866667 c 0,-5.888639 -7.40332,-13.199154 -12.39951,-12.244072 -4.15087,0.793489 -4.87558,3.044072 -0.98022,3.044072 3.52329,0 12.04639,7.644636 12.04639,10.804789 0,1.390699 0.3,2.528544 0.66667,2.528544 0.36667,0 0.66667,-1.86 0.66667,-4.133333 z M 100,53.843187 c 0,-3.082759 -4.433823,-7.17652 -7.77266,-7.17652 -1.233611,0 -1.528637,0.774037 -0.889357,2.333333 0.52614,1.283333 1.271553,4.91162 1.656473,8.062859 l 0.699853,5.729525 3.152846,-2.961944 C 98.58122,58.201371 100,55.507107 100,53.843187 Z m 29.37289,-8.435936 c -3.16125,-5.906856 -13.97753,-9.33594 -17.70155,-5.61192 -1.16179,1.161781 -0.80747,1.538002 1.44844,1.538002 3.64809,0 12.37917,4.319747 14.92068,7.382087 2.33909,2.818428 3.3148,0.395921 1.33243,-3.308169 z M 97.751175,41.666667 c -2.156686,-6.04985 -8.013719,-7.652343 -12.646187,-3.460016 -3.790733,3.430565 -2.982776,4.282568 4.561679,4.81036 3.85,0.269337 7.431169,0.600692 7.958153,0.736346 0.526985,0.135654 0.583844,-0.803357 0.12636,-2.08669 z m 12.184945,-3.543232 c 1.11533,-1.824023 0.64248,-2.9412 -2.34381,-5.537558 -4.69547,-4.082377 -6.81729,-4.17531 -5.76602,-0.252544 0.44218,1.65 0.81216,4.630666 0.82217,6.623702 0.0159,3.172058 0.38415,3.488329 2.95433,2.537557 1.61487,-0.597379 3.56487,-2.114399 4.33333,-3.371157 z M 85.209741,29.1024 C 83.547824,25.997079 80.483119,24.432809 73.975453,23.36826 l -5.308786,-0.868433 5.562724,2.63836 c 3.059497,1.451098 6.601961,4.224438 7.872141,6.162978 1.660137,2.53369 2.600353,3.053874 3.344243,1.850235 0.569153,-0.920909 0.462938,-2.74296 -0.236034,-4.049 z M 98.017524,22.721877 C 96.822452,18.956541 88.361809,12 84.977425,12 c -2.499972,0 -2.218622,0.483247 1.917803,3.294021 2.666173,1.811711 5.955455,5.644498 7.309513,8.517304 1.814686,3.850083 2.746202,4.729679 3.543236,3.34574 0.594722,-1.032649 0.716016,-3.028482 0.269547,-4.435188 z m 20.670606,4.36799 c 3.3118,-0.396423 8.26845,-0.100347 11.01478,0.657956 5.78138,1.596316 5.43185,-0.08112 -0.67493,-3.23906 -2.76288,-1.428742 -6.23101,-1.937663 -10.44511,-1.53274 l -6.30885,0.606201 -0.80294,-5.021263 c -0.71162,-4.450265 -6.9924,-14.1507559 -8.30944,-12.8337145 -0.27859,0.2785966 0.43926,2.4024375 1.59524,4.7196465 1.15597,2.317209 2.44569,7.545371 2.86604,11.618138 0.62823,6.087013 1.14512,7.257349 2.90401,6.575317 1.17685,-0.456343 4.84939,-1.154059 8.1612,-1.550481 z"
         style="fill:#21ad4a;stroke-width:1.33333337" />
      <path
         style="fill:#0e100a;stroke-width:1.33333337"
         d="M 101.82031,0.26953125 C 99.758265,0.41564961 98.445188,2.3690355 97.891114,4.1816981 96.871991,7.1345052 97.100071,10.353997 96.929688,13.384766 96.478811,12.905567 96.183014,12.289449 95.608134,11.919119 93.384085,10.068046 90.451443,9.4749071 87.699219,8.8613281 85.19572,8.3986049 82.391888,8.0331537 80.063194,9.3140016 c -1.438508,0.8054634 -2.412623,2.4574724 -2.132995,4.1267334 0.155335,1.772395 0.718072,3.484626 1.270973,5.164734 0.506879,0.74618 -0.446621,0.121015 -0.828125,0.138672 -4.320734,-0.898985 -8.991319,0.436154 -12.292689,3.326794 -0.66397,0.603054 -1.182402,1.514293 -0.825787,2.421163 0.498041,1.473219 1.790754,2.474252 2.710276,3.678458 2.253236,2.597482 4.602711,5.560309 4.73489,9.154254 0.118069,1.674758 -0.0056,3.353974 0.03269,5.030659 C 66.98363,41.69437 61.04948,40.606298 55.341797,42.125 c -4.231405,1.421996 -8.690389,2.6752 -13.195447,2.004481 -1.758542,-0.250854 -3.601835,-0.281078 -5.258229,0.449627 -3.217085,1.245602 -5.804867,3.616515 -8.465431,5.739251 -2.768852,2.338559 -5.19595,5.055372 -8.024736,7.317634 -2.270205,1.682479 -4.978555,2.659732 -7.237578,4.349241 -4.44159,3.533764 -7.0534717,8.788219 -8.9351005,14.024427 -1.5278249,4.323212 -2.81703,8.779483 -3.27174094,13.354725 -0.18554359,4.221896 1.27111524,8.269334 2.43216474,12.263854 5.1176914,15.4816 17.4337307,28.27253 32.4936707,34.3949 8.542526,3.53586 18.352098,3.48734 27.035374,0.46117 6.216504,-2.17463 12.295253,-5.55214 16.307633,-10.90979 1.042009,-1.10311 1.14273,-2.66777 1.734654,-3.99444 3.884724,-5.70561 9.873657,-9.7292 13.325629,-15.77787 1.501067,-2.47164 2.395292,-5.46052 1.763515,-8.347396 -0.328722,-4.532113 1.325825,-8.851682 2.021129,-13.276942 0.670386,-3.679927 0.697869,-7.45427 0.242326,-11.162209 -0.120814,-1.606376 -0.355399,-3.246185 -0.139058,-4.844851 0.64935,-1.352712 2.332418,-1.386302 3.607588,-1.721679 5.37137,-1.174182 10.97628,0.189006 15.74046,2.763459 1.70454,0.851579 3.44418,1.951068 5.41888,1.890924 2.01,-0.737512 2.99738,-2.881978 3.55271,-4.802452 1.01437,-4.090799 -0.12653,-8.673046 -3.00974,-11.760048 2.96627,0.208524 6.11925,1.097663 8.96539,-0.202936 1.63822,-0.697329 2.56071,-2.541241 2.32679,-4.279506 -0.24599,-2.786158 -1.8419,-5.19886 -3.1463,-7.594683 -1.29671,-2.213296 -2.94514,-4.383138 -5.26502,-5.573266 1.46685,-0.870669 3.02005,-1.658504 4.51491,-2.505314 2.2831,-1.302184 4.82521,-2.390437 6.52415,-4.473202 0.70521,-0.807252 0.55865,-2.005371 -0.0293,-2.832031 -1.29185,-2.194266 -3.60909,-3.458703 -5.67773,-4.810547 -4.4034,-2.610464 -9.37794,-4.424842 -14.5293,-4.621093 -2.16046,-0.814216 -3.04515,-3.138946 -3.92322,-5.076922 -2.16109,-4.3260654 -5.00079,-8.4038792 -8.78739,-11.4516645 -0.77218,-0.5203327 -1.6883,-0.89063528 -2.63314,-0.85032025 z M 102.6875,5.96875 c 2.68438,1.2707793 4.07502,4.058142 5.66877,6.400546 1.98396,3.278614 2.92834,7.060361 3.20037,10.845548 0.1422,0.715561 0.9091,1.115059 1.58799,0.894544 3.27759,-0.219501 6.55401,-0.709599 9.84422,-0.572721 2.6049,0.111148 5.1455,0.95427 7.30572,2.385261 1.21111,0.731105 2.38693,1.517175 3.59215,2.25776 -5.60468,2.23394 -11.58824,4.009737 -16.2967,7.940423 -0.7107,0.609827 -1.11753,1.998648 -0.17175,2.585237 1.63718,0.930204 3.84888,0.20755 5.27142,1.545839 3.15357,1.994879 6.12974,4.661951 7.40992,8.233188 0.0942,0.722055 -0.57647,1.506574 -1.33229,1.237006 -4.397,-0.181938 -8.88454,-1.460849 -13.23412,-0.221381 -0.92267,0.231526 -1.80062,1.345161 -1.17137,2.258024 0.82855,1.680029 2.45015,2.744898 3.63409,4.145268 2.23233,2.256886 4.29878,5.189014 4.06157,8.523525 -0.008,0.815583 8.2e-4,1.631468 0.0402,2.44623 -2.34204,-1.367818 -4.64338,-2.82332 -7.17177,-3.851588 -3.58258,-1.554393 -7.60836,-2.256779 -11.47497,-1.483483 -3.617191,0.646413 -7.085994,2.127969 -10.106207,4.201916 -1.161326,1.249742 -0.594708,3.068089 -0.476146,4.572665 0.621646,6.984143 0.702284,14.20488 -1.26014,20.967541 -0.696098,1.956348 -2.401811,3.893734 -1.902987,6.149387 0.429306,1.595134 2.459369,2.23272 2.583622,3.961135 -0.473788,1.92322 -1.750136,3.50678 -2.794921,5.14844 -3.456924,4.87315 -8.167659,8.62379 -12.840242,12.26288 -1.179706,1.05382 -2.495521,2.26033 -2.77169,3.88581 0.02826,0.93566 1.160156,1.80363 0.484979,2.7185 -1.779503,2.96428 -5.079788,4.40128 -8.101235,5.76855 -6.07464,2.46654 -12.752153,2.94201 -19.264783,2.81978 C 37.259944,133.4012 28.063431,128.72936 21.050515,122.07026 14.299468,115.65353 8.7060312,107.65089 6.5170579,98.502482 5.0434545,92.442897 5.2843873,85.994398 7.0442594,80.01436 8.447561,75.101738 10.634234,70.42689 13.297778,66.077846 c 0.458688,-0.660094 1.290476,-1.633707 2.167066,-1.048549 0.835337,0.557375 1.624433,1.661692 2.763672,1.339844 2.452707,-1.138387 3.291194,-3.935691 5.08432,-5.766487 3.827369,-4.51124 8.092048,-8.845627 13.390289,-11.614373 1.260636,-0.550077 3.075371,-0.642728 4.047358,0.500052 0.503905,1.007257 1.834552,0.771265 2.71758,0.510403 4.512994,-1.035389 8.730703,-3.319051 13.410106,-3.527893 5.288331,-0.591725 10.680539,0.03485 15.709722,1.714704 1.688664,0.237168 2.93147,-1.356712 3.332136,-2.823286 1.879164,-4.453205 2.285017,-9.817513 -0.04235,-14.184855 -1.395248,-2.842782 -4.340294,-4.507478 -5.799555,-7.288734 -0.01595,-0.527394 0.777062,-0.37054 1.136719,-0.439453 5.448761,0.456855 10.756947,2.742035 14.871094,6.367187 0.667038,0.383944 1.498439,-0.390055 1.224903,-1.092173 -0.01491,-3.423279 -0.103498,-6.94338 -1.433627,-10.151454 -0.605667,-1.645733 -1.599364,-3.114259 -2.302995,-4.709498 -0.216836,-0.494947 -0.03504,-1.19826 0.611229,-1.16654 2.174509,-0.454272 4.081207,1.03581 5.763967,2.189376 2.826221,2.031432 4.885539,5.017516 7.894602,6.820053 0.801988,0.413277 1.802208,0.0665 2.241176,-0.704291 1.07607,-1.481319 1.27126,-3.384174 1.5636,-5.140137 0.38497,-3.295729 0.0462,-6.6925345 1.00355,-9.8968982 z"
         id="path1113"
         inkscape:connector-curvature="0" />
    </g>
  </g>
</svg>
