<?xml version="1.0" encoding="UTF-8" standalone="no"?>
<!-- Created with Inkscape (http://www.inkscape.org/) -->

<svg
   xmlns:dc="http://purl.org/dc/elements/1.1/"
   xmlns:cc="http://creativecommons.org/ns#"
   xmlns:rdf="http://www.w3.org/1999/02/22-rdf-syntax-ns#"
   xmlns:svg="http://www.w3.org/2000/svg"
   xmlns="http://www.w3.org/2000/svg"
   xmlns:sodipodi="http://sodipodi.sourceforge.net/DTD/sodipodi-0.dtd"
   xmlns:inkscape="http://www.inkscape.org/namespaces/inkscape"
   width="150"
   height="100"
   viewBox="0 0 39.687499 26.458334"
   version="1.1"
   id="svg8"
   inkscape:version="0.92.4 (5da689c313, 2019-01-14)"
   sodipodi:docname="nu.svg">
  <defs
     id="defs2" />
  <sodipodi:namedview
     id="base"
     pagecolor="#ffffff"
     bordercolor="#666666"
     borderopacity="1.0"
     inkscape:pageopacity="0.0"
     inkscape:pageshadow="2"
     inkscape:zoom="7"
     inkscape:cx="31.305914"
     inkscape:cy="48.387097"
     inkscape:document-units="mm"
     inkscape:current-layer="layer1"
     showgrid="false"
     units="px"
     inkscape:pagecheckerboard="true"
     objecttolerance="20"
     inkscape:window-width="1920"
     inkscape:window-height="1001"
     inkscape:window-x="-9"
     inkscape:window-y="41"
     inkscape:window-maximized="1"
     gridtolerance="10" />
  <metadata
     id="metadata5">
    <rdf:RDF>
      <cc:Work
         rdf:about="">
        <dc:format>image/svg+xml</dc:format>
        <dc:type
           rdf:resource="http://purl.org/dc/dcmitype/StillImage" />
        <dc:title />
      </cc:Work>
    </rdf:RDF>
  </metadata>
  <g
     inkscape:label="Layer 1"
     inkscape:groupmode="layer"
     id="layer1"
     transform="translate(0,-270.54165)">
    <path
       style="fill:#b83636;fill-opacity:1;stroke-width:0;stroke-miterlimit:4;stroke-dasharray:none"
       d="m 3.90885,270.54279 h 31.8698 c 2.164721,0 3.907439,1.74271 3.907439,3.90743 v 18.64118 c 0,2.16472 -1.742718,3.90744 -3.907439,3.90744 H 3.90885 c -2.164721,0 -3.90743856,-1.74272 -3.90743856,-3.90744 v -18.64118 c 0,-2.16472 1.74271756,-3.90743 3.90743856,-3.90743 z"
       id="rect1368"
       inkscape:connector-curvature="0" />
    <g
       aria-label="NU"
       transform="matrix(0.5637439,0,0,0.5637439,3.6019799,271.39108)"
       style="font-style:normal;font-variant:normal;font-weight:normal;font-stretch:normal;font-size:40px;line-height:1.25;font-family:Arial;-inkscape-font-specification:Arial;letter-spacing:0px;word-spacing:0px;fill:#000000;fill-opacity:1;stroke:none"
       id="flowRoot1370">
      <path
         d="M 3.0488281,36.03213 V 7.3993175 H 6.9355469 L 21.974609,29.879786 V 7.3993175 h 3.632813 V 36.03213 h -3.886719 l -15.0390624,-22.5 v 22.5 z"
         style="font-style:normal;font-variant:normal;font-weight:normal;font-stretch:normal;font-family:Arial;-inkscape-font-specification:Arial;fill:#ffffff"
         id="path818"
         inkscape:connector-curvature="0" />
      <path
         d="m 50.783203,7.3993175 h 3.789063 V 23.942286 q 0,4.316407 -0.976563,6.855469 -0.976562,2.539063 -3.535156,4.140625 -2.539063,1.582031 -6.679688,1.582031 -4.023437,0 -6.582031,-1.386718 -2.558594,-1.386719 -3.652344,-4.003907 -1.09375,-2.636718 -1.09375,-7.1875 V 7.3993175 h 3.789063 V 23.922755 q 0,3.730469 0.683594,5.507813 0.703125,1.757812 2.382812,2.714843 1.699219,0.957032 4.140625,0.957032 4.179688,0 5.957031,-1.894532 1.777344,-1.894531 1.777344,-7.285156 z"
         style="font-style:normal;font-variant:normal;font-weight:normal;font-stretch:normal;font-family:Arial;-inkscape-font-specification:Arial;fill:#ffffff"
         id="path820"
         inkscape:connector-curvature="0" />
    </g>
  </g>
</svg>
