<?xml version="1.0" encoding="UTF-8" standalone="no"?>
<!-- Created with Inkscape (http://www.inkscape.org/) -->

<svg
   xmlns:dc="http://purl.org/dc/elements/1.1/"
   xmlns:cc="http://creativecommons.org/ns#"
   xmlns:rdf="http://www.w3.org/1999/02/22-rdf-syntax-ns#"
   xmlns:svg="http://www.w3.org/2000/svg"
   xmlns="http://www.w3.org/2000/svg"
   xmlns:sodipodi="http://sodipodi.sourceforge.net/DTD/sodipodi-0.dtd"
   xmlns:inkscape="http://www.inkscape.org/namespaces/inkscape"
   width="150"
   height="100"
   viewBox="0 0 39.687499 26.458334"
   version="1.1"
   id="svg8"
   inkscape:version="0.92.4 (5da689c313, 2019-01-14)"
   sodipodi:docname="template.svg">
  <defs
     id="defs2" />
  <sodipodi:namedview
     id="base"
     pagecolor="#ffffff"
     bordercolor="#666666"
     borderopacity="1.0"
     inkscape:pageopacity="0.0"
     inkscape:pageshadow="2"
     inkscape:zoom="7"
     inkscape:cx="71.47619"
     inkscape:cy="48.387097"
     inkscape:document-units="mm"
     inkscape:current-layer="layer1"
     showgrid="false"
     units="px"
     inkscape:pagecheckerboard="true"
     objecttolerance="20"
     inkscape:window-width="1920"
     inkscape:window-height="1001"
     inkscape:window-x="-9"
     inkscape:window-y="41"
     inkscape:window-maximized="1"
     gridtolerance="10" />
  <metadata
     id="metadata5">
    <rdf:RDF>
      <cc:Work
         rdf:about="">
        <dc:format>image/svg+xml</dc:format>
        <dc:type
           rdf:resource="http://purl.org/dc/dcmitype/StillImage" />
        <dc:title></dc:title>
      </cc:Work>
    </rdf:RDF>
  </metadata>
  <g
     inkscape:label="Layer 1"
     inkscape:groupmode="layer"
     id="layer1"
     transform="translate(0,-270.54165)">
    <rect
       style="fill:#3f3f3f;fill-opacity:1;stroke-width:0;stroke-miterlimit:4;stroke-dasharray:none"
       id="rect1368"
       width="39.684677"
       height="26.456053"
       x="0.001411438"
       y="270.54279"
       ry="3.9074385" />
    <g
       aria-label="PD"
       transform="matrix(0.5637439,0,0,0.5637439,3.8992668,271.52871)"
       style="font-style:normal;font-variant:normal;font-weight:normal;font-stretch:normal;font-size:40px;line-height:1.25;font-family:Arial;-inkscape-font-specification:Arial;letter-spacing:0px;word-spacing:0px;fill:#000000;fill-opacity:1;stroke:none"
       id="flowRoot1370">
      <path
         d="M 3.0878906,36.03213 V 7.3993175 H 13.888672 q 2.851562,0 4.355469,0.2734375 2.109375,0.3515625 3.535156,1.3476563 1.425781,0.9765625 2.285156,2.7539067 0.878906,1.777343 0.878906,3.90625 0,3.652343 -2.324218,6.191406 -2.324219,2.519531 -8.398438,2.519531 H 6.8769531 V 36.03213 Z M 6.8769531,21.012599 h 7.4023439 q 3.671875,0 5.214844,-1.367188 1.542968,-1.367187 1.542968,-3.847656 0,-1.796875 -0.917968,-3.066406 -0.898438,-1.289063 -2.382813,-1.699219 -0.957031,-0.253906 -3.535156,-0.253906 H 6.8769531 Z"
         style="font-style:normal;font-variant:normal;font-weight:normal;font-stretch:normal;font-family:Arial;-inkscape-font-specification:Arial;fill:#ffffff"
         id="path817"
         inkscape:connector-curvature="0" />
      <path
         d="M 29.806641,36.03213 V 7.3993175 h 9.863281 q 3.339844,0 5.097656,0.4101563 2.460938,0.5664062 4.199219,2.0507812 2.265625,1.914063 3.378906,4.902344 1.132813,2.96875 1.132813,6.796875 0,3.261719 -0.761719,5.78125 -0.761719,2.519531 -1.953125,4.179687 -1.191406,1.640625 -2.617188,2.597657 -1.40625,0.9375 -3.417968,1.425781 -1.992188,0.488281 -4.589844,0.488281 z m 3.789062,-3.378906 h 6.113281 q 2.832032,0 4.433594,-0.527344 1.621094,-0.527344 2.578125,-1.484375 1.347656,-1.347656 2.089844,-3.613281 0.761719,-2.285156 0.761719,-5.527344 0,-4.492187 -1.484375,-6.894531 -1.464844,-2.421875 -3.574219,-3.242188 -1.523438,-0.585937 -4.902344,-0.585937 h -6.015625 z"
         style="font-style:normal;font-variant:normal;font-weight:normal;font-stretch:normal;font-family:Arial;-inkscape-font-specification:Arial;fill:#ffffff"
         id="path819"
         inkscape:connector-curvature="0" />
    </g>
  </g>
</svg>
